<?xml version="1.0" encoding="UTF-8"?>
<svg version="1.1" xmlns="http://www.w3.org/2000/svg" width="500" height="500">
<path d="M0 0 C2.46077685 3.37477968 3.0203346 4.98326989 2.9375 9.125 C1.86656749 12.40919303 0.65180522 13.83034119 -2 16 C-4.93300732 17.46650366 -6.72037344 17.36440295 -10 17 C-11.71484375 16.0234375 -11.71484375 16.0234375 -13.5625 14.75 C-23.7142136 8.01417491 -35.16894427 6.89083853 -47 8 C-49.92328836 8.74356899 -52.25688779 9.70912367 -55 11 C-55.99 11 -56.98 11 -58 11 C-58 11.66 -58 12.32 -58 13 C-58.66 13 -59.32 13 -60 13 C-61.79172099 19.07806891 -62.28545662 23.03241883 -60 29 C-59.34 29 -58.68 29 -58 29 C-58 29.66 -58 30.32 -58 31 C-57.29875 31.268125 -56.5975 31.53625 -55.875 31.8125 C-53 33 -53 33 -50.4609375 34.41796875 C-45.9991532 36.45749769 -41.52604176 37.44696092 -36.75 38.5 C-21.85292825 41.84160075 -6.51528688 45.46964523 3.53515625 57.8984375 C7.19084526 63.70273482 7.48498138 69.44374986 7.5625 76.125 C7.57724365 76.9720752 7.5919873 77.81915039 7.60717773 78.69189453 C7.48488099 86.20106087 5.08962596 92.1240751 0.0625 97.75 C-0.40027344 98.28109375 -0.86304688 98.8121875 -1.33984375 99.359375 C-11.12188735 109.02633573 -25.01941611 112.01926329 -38.375 112.25 C-52.76728608 112.00459492 -66.75579415 108.87127519 -79 101 C-79 100.34 -79 99.68 -79 99 C-80.32 98.34 -81.64 97.68 -83 97 C-83 96.34 -83 95.68 -83 95 C-83.66 95 -84.32 95 -85 95 C-85.89953149 86.42113483 -85.89953149 86.42113483 -83.875 83.22265625 C-81.44141381 81.03623116 -79.37899551 80.04672547 -76.1484375 79.6484375 C-72.22997366 80.08598309 -70.40327235 81.41487399 -67.25 83.75 C-56.54565822 91.17080136 -46.46058242 94.09954986 -33.25 92.7109375 C-27.8687144 91.63831638 -22.67415499 90.13599085 -19.1875 85.6875 C-17.82463661 82.60312497 -17.06915165 80.38843095 -17 77 C-21.51268766 68.78046176 -26.32896966 66.67009807 -35 64 C-36.68275334 63.55560851 -38.36787069 63.12011551 -40.0546875 62.69140625 C-72.31631647 54.47258866 -72.31631647 54.47258866 -80.6875 42.625 C-81.28111328 41.80902344 -81.28111328 41.80902344 -81.88671875 40.9765625 C-86.09970008 33.49667285 -86.06982319 24.35385391 -85 16 C-83.79113717 12.28802714 -82.19919268 9.21215416 -80 6 C-79.34 5.01 -78.68 4.02 -78 3 C-77.34 3 -76.68 3 -76 3 C-76 2.34 -76 1.68 -76 1 C-75.34 1 -74.68 1 -74 1 C-74 0.34 -74 -0.32 -74 -1 C-52.10822956 -13.43484755 -21.12887714 -16.81942299 0 0 Z " fill="#4E26C6" transform="translate(288,157)"/>
<path d="M0 0 C0.99 0.33 1.98 0.66 3 1 C3 2.32 3 3.64 3 5 C3.66 5.2475 4.32 5.495 5 5.75 C7.45754602 6.77397751 9.85302166 7.84462195 12.25 9 C12.93578125 9.33 13.6215625 9.66 14.328125 10 C16 11 16 11 17 13 C18.175625 13.680625 18.175625 13.680625 19.375 14.375 C22.1334436 16.08260794 23.32640526 17.25395805 25 20 C26.03009047 26.59459881 25.11281125 32.1634789 22 38 C22.66 38 23.32 38 24 38 C24 38.66 24 39.32 24 40 C13.6690947 49.58616351 -1.79155834 51.41340873 -15.26953125 51.18359375 C-28.24180911 50.54516751 -41.00577302 47.06771734 -52 40 C-52 39.34 -52 38.68 -52 38 C-53.32 37.34 -54.64 36.68 -56 36 C-56 35.34 -56 34.68 -56 34 C-56.66 34 -57.32 34 -58 34 C-58.89953149 25.42113483 -58.89953149 25.42113483 -56.875 22.22265625 C-54.44141381 20.03623116 -52.37899551 19.04672547 -49.1484375 18.6484375 C-45.22997366 19.08598309 -43.40327235 20.41487399 -40.25 22.75 C-29.54565822 30.17080136 -19.46058242 33.09954986 -6.25 31.7109375 C-0.8687144 30.63831638 4.32584501 29.13599085 7.8125 24.6875 C9.17536339 21.60312497 9.93084835 19.38843095 10 16 C8.17079187 12.48229206 6.49519469 10.36851698 3.3125 8 C1 6 1 6 0.1875 2.75 C0.125625 1.8425 0.06375 0.935 0 0 Z " fill="#1252BB" transform="translate(261,218)"/>
<path d="M0 0 C2.46077685 3.37477968 3.0203346 4.98326989 2.9375 9.125 C1.86656749 12.40919303 0.65180522 13.83034119 -2 16 C-4.93300732 17.46650366 -6.72037344 17.36440295 -10 17 C-11.71484375 16.0234375 -11.71484375 16.0234375 -13.5625 14.75 C-23.7142136 8.01417491 -35.16894427 6.89083853 -47 8 C-49.92328836 8.74356899 -52.25688779 9.70912367 -55 11 C-55.99 11 -56.98 11 -58 11 C-58 11.66 -58 12.32 -58 13 C-58.66 13 -59.32 13 -60 13 C-61.79172099 19.07806891 -62.28545662 23.03241883 -60 29 C-59.34 29 -58.68 29 -58 29 C-58 29.66 -58 30.32 -58 31 C-57.34 31.33 -56.68 31.66 -56 32 C-63.02265023 31.04901611 -67.56813536 26.05196749 -71.875 20.6875 C-74.69019672 16.53579574 -75.34036154 11.89313901 -76 7 C-77.32 7.33 -78.64 7.66 -80 8 C-80 8.99 -80 9.98 -80 11 C-80.66 11 -81.32 11 -82 11 C-80.87548273 8.0280615 -79.77706209 5.66559313 -78 3 C-77.34 3 -76.68 3 -76 3 C-76 2.34 -76 1.68 -76 1 C-75.34 1 -74.68 1 -74 1 C-74 0.34 -74 -0.32 -74 -1 C-52.10822956 -13.43484755 -21.12887714 -16.81942299 0 0 Z " fill="#E93B7A" transform="translate(288,157)"/>
<path d="M0 0 C1.96875 1.546875 1.96875 1.546875 2.875 4.03125 C2.96875 6.546875 2.96875 6.546875 0.96875 9.546875 C0.30875 9.546875 -0.35125 9.546875 -1.03125 9.546875 C-1.03125 10.206875 -1.03125 10.866875 -1.03125 11.546875 C-6.90625 9.671875 -6.90625 9.671875 -8.03125 8.546875 C-9.83554123 8.26015777 -11.65091002 8.04139539 -13.46875 7.859375 C-14.45746094 7.75238281 -15.44617188 7.64539063 -16.46484375 7.53515625 C-19.20019258 7.24657048 -19.20019258 7.24657048 -21.03125 9.546875 C-21.19812448 12.13041718 -21.19812448 12.13041718 -21.03125 14.546875 C-17.02052877 16.1652362 -13.63949725 17.4644008 -9.34375 18.046875 C-3.45484369 18.93576652 0.14342684 22.10122917 3.96875 26.546875 C5.97314011 30.9374438 6.62921572 34.75849856 5.96875 39.546875 C2.86859526 45.52653289 -0.69465622 48.51438265 -7.03125 50.546875 C-8.51625 51.041875 -8.51625 51.041875 -10.03125 51.546875 C-17.86265105 52.42341714 -25.46346917 51.17030564 -31.76953125 46.16796875 C-33.15625 44.796875 -33.15625 44.796875 -35.03125 42.546875 C-34.70125 41.556875 -34.37125 40.566875 -34.03125 39.546875 C-33.37125 39.546875 -32.71125 39.546875 -32.03125 39.546875 C-32.03125 38.886875 -32.03125 38.226875 -32.03125 37.546875 C-31.37125 37.546875 -30.71125 37.546875 -30.03125 37.546875 C-29.70125 36.556875 -29.37125 35.566875 -29.03125 34.546875 C-28.04125 34.876875 -27.05125 35.206875 -26.03125 35.546875 C-26.03125 36.206875 -26.03125 36.866875 -26.03125 37.546875 C-20.61487845 40.16769994 -14.72668108 41.48202456 -8.96875 39.484375 C-6.69835677 37.62391765 -6.69835677 37.62391765 -6.71875 34.359375 C-6.821875 33.43125 -6.925 32.503125 -7.03125 31.546875 C-10.19828111 30.38820508 -12.97393241 29.55228232 -16.34375 29.234375 C-22.14865084 28.15210535 -28.25202288 25.24567667 -32.03125 20.546875 C-33.63617358 15.99828671 -34.31164014 11.83199648 -33.28125 7.109375 C-32.03125 4.546875 -32.03125 4.546875 -30.03125 1.546875 C-29.37125 1.546875 -28.71125 1.546875 -28.03125 1.546875 C-28.03125 0.886875 -28.03125 0.226875 -28.03125 -0.453125 C-17.07264474 -5.22575122 -10.72758767 -5.09891513 0 0 Z " fill="#313681" transform="translate(177.03125,294.453125)"/>
<path d="M0 0 C1.20849609 -0.00386719 1.20849609 -0.00386719 2.44140625 -0.0078125 C4.4375 0.125 4.4375 0.125 5.4375 1.125 C5.67403523 3.65096259 5.85923692 6.15607207 6 8.6875 C6.04318359 9.39841797 6.08636719 10.10933594 6.13085938 10.84179688 C6.23721777 12.60261912 6.33788846 14.3637832 6.4375 16.125 C7.54222656 15.80273438 8.64695312 15.48046875 9.78515625 15.1484375 C15.85099591 13.44870489 19.24658618 14.00796061 24.765625 16.90234375 C26.4375 18.125 26.4375 18.125 27.4375 20.875 C27.4375 21.6175 27.4375 22.36 27.4375 23.125 C28.0975 23.125 28.7575 23.125 29.4375 23.125 C30.4124829 27.35265695 30.75320171 31.5555221 31 35.875 C31.0417334 36.58221191 31.0834668 37.28942383 31.12646484 38.01806641 C31.9205316 52.1589368 31.9205316 52.1589368 30.4375 55.125 C26.8075 55.125 23.1775 55.125 19.4375 55.125 C19.4375 54.465 19.4375 53.805 19.4375 53.125 C18.7775 53.125 18.1175 53.125 17.4375 53.125 C17.59605469 52.49851562 17.75460937 51.87203125 17.91796875 51.2265625 C18.6298921 46.9764336 18.70110633 42.80264293 18.75 38.5 C18.79350586 37.21222656 18.79350586 37.21222656 18.83789062 35.8984375 C19.03764662 31.02708802 19.03764662 31.02708802 16.54296875 27.09765625 C15.84816406 26.77667969 15.15335937 26.45570313 14.4375 26.125 C13.7775 25.815625 13.1175 25.50625 12.4375 25.1875 C10.2586791 24.9058873 10.2586791 24.9058873 8.34838867 26.75708008 C5.9810922 29.69056781 5.91663936 31.21680395 5.86328125 34.94921875 C5.83556641 36.05974609 5.80785156 37.17027344 5.77929688 38.31445312 C5.76962891 39.46880859 5.75996094 40.62316406 5.75 41.8125 C5.70812259 44.10814331 5.6627473 46.40372642 5.61328125 48.69921875 C5.60208252 49.71588623 5.59088379 50.73255371 5.5793457 51.7800293 C5.4375 54.125 5.4375 54.125 4.4375 55.125 C2.77320949 55.22323937 1.10468069 55.25473631 -0.5625 55.25 C-1.92375 55.25386719 -1.92375 55.25386719 -3.3125 55.2578125 C-5.5625 55.125 -5.5625 55.125 -6.5625 54.125 C-6.65596915 52.46761557 -6.67994977 50.80625356 -6.67602539 49.14624023 C-6.67594986 48.08521591 -6.67587433 47.02419159 -6.67579651 45.93101501 C-6.67063522 44.776866 -6.66547394 43.62271698 -6.66015625 42.43359375 C-6.6587413 41.25861832 -6.65732635 40.08364288 -6.65586853 38.87306213 C-6.65024992 35.10284936 -6.63769426 31.33269496 -6.625 27.5625 C-6.6199874 25.01367273 -6.61542408 22.46484453 -6.61132812 19.91601562 C-6.60027444 13.65232367 -6.58351821 7.38866601 -6.5625 1.125 C-4.1828388 -0.0648306 -2.64764265 -0.00849966 0 0 Z " fill="#0F1771" transform="translate(310.5625,289.875)"/>
<path d="M0 0 C3.3 0 6.6 0 10 0 C10.63551223 6.60478779 11.11719585 13.10857821 10.9375 19.74609375 C11.00710018 22.25605019 11.44794629 24.55457459 12 27 C13.48185125 25.37744772 14.96040256 23.75188112 16.4375 22.125 C17.26121094 21.22007812 18.08492187 20.31515625 18.93359375 19.3828125 C21.00907942 17.18862073 21.00907942 17.18862073 22 15 C26.62 15 31.24 15 36 15 C35.67 16.32 35.34 17.64 35 19 C34.34 19 33.68 19 33 19 C33 19.66 33 20.32 33 21 C32.34 21 31.68 21 31 21 C30.566875 21.8971875 30.566875 21.8971875 30.125 22.8125 C29 25 29 25 27 28 C26.34 28 25.68 28 25 28 C25 28.66 25 29.32 25 30 C24.34 30 23.68 30 23 30 C25.0246445 33.63039704 27.08128767 37.18623127 29.39453125 40.640625 C29.79220703 41.23617187 30.18988281 41.83171875 30.59960938 42.4453125 C31.42152464 43.66825889 32.24986828 44.88690497 33.08398438 46.1015625 C34.13364812 47.68556907 35.07592765 49.33959009 36 51 C35.67 51.99 35.34 52.98 35 54 C33.39667209 54.08121924 31.79215974 54.13929134 30.1875 54.1875 C28.84751953 54.23970703 28.84751953 54.23970703 27.48046875 54.29296875 C25 54 25 54 23.21875 52.625 C21.82909355 50.77212473 21.39083561 49.26684656 21 47 C20.34 47 19.68 47 19 47 C15 41.58823529 15 41.58823529 15 39 C12.69623147 40.81098382 12.04858979 41.72837512 11.5234375 44.6640625 C11.44996094 46.12972656 11.44996094 46.12972656 11.375 47.625 C11.08333333 52.91666667 11.08333333 52.91666667 10 54 C8.50261876 54.0979057 7.00057108 54.12974864 5.5 54.125 C4.6853125 54.12757813 3.870625 54.13015625 3.03125 54.1328125 C1 54 1 54 0 53 C-0.09346915 51.34261557 -0.11744977 49.68125356 -0.11352539 48.02124023 C-0.11344986 46.96021591 -0.11337433 45.89919159 -0.11329651 44.80601501 C-0.10813522 43.651866 -0.10297394 42.49771698 -0.09765625 41.30859375 C-0.0962413 40.13361832 -0.09482635 38.95864288 -0.09336853 37.74806213 C-0.08774992 33.97784936 -0.07519426 30.20769496 -0.0625 26.4375 C-0.0574874 23.88867273 -0.05292408 21.33984453 -0.04882812 18.79101562 C-0.03777444 12.5273211 -0.02049734 6.26367046 0 0 Z " fill="#121970" transform="translate(229,291)"/>
<path d="M0 0 C1.8125 1.4375 1.8125 1.4375 3 3 C3 3.99 3 4.98 3 6 C3.66 6 4.32 6 5 6 C5.81633513 10.19436837 6.06893987 14.00823857 5.87890625 18.2734375 C5.83056641 19.42714844 5.78222656 20.58085937 5.73242188 21.76953125 C5.67634766 22.95933594 5.62027344 24.14914062 5.5625 25.375 C5.51029297 26.58800781 5.45808594 27.80101562 5.40429688 29.05078125 C5.27509608 32.03414513 5.14014959 35.01713373 5 38 C1.7 38 -1.6 38 -5 38 C-5 37.34 -5 36.68 -5 36 C-5.53367188 36.23976563 -6.06734375 36.47953125 -6.6171875 36.7265625 C-12.99752217 39.26545 -17.46577643 38.89615256 -24 37 C-24 36.34 -24 35.68 -24 35 C-24.66 35 -25.32 35 -26 35 C-26 34.34 -26 33.68 -26 33 C-26.66 33 -27.32 33 -28 33 C-30.60018816 29.09971775 -30.15085514 25.52565431 -30 21 C-29.34 21 -28.68 21 -28 21 C-27.9071875 20.13375 -27.9071875 20.13375 -27.8125 19.25 C-26.65426021 16.04256673 -24.78859442 14.88067996 -22 13 C-18.58677263 11.82975062 -15.33506016 11.89853195 -11.75 11.9375 C-10.67234375 11.94652344 -9.5946875 11.95554687 -8.484375 11.96484375 C-7.66453125 11.97644531 -6.8446875 11.98804688 -6 12 C-7.78606801 9.92189054 -7.78606801 9.92189054 -10 8 C-14.6204762 8.17112875 -18.67610872 9.41808856 -23 11 C-24.98 7.535 -24.98 7.535 -27 4 C-25.625 2.5 -25.625 2.5 -24 1 C-23.34 1 -22.68 1 -22 1 C-22 0.34 -22 -0.32 -22 -1 C-14.25974172 -3.16798901 -7.43428265 -3.82334536 0 0 Z M-16 21 C-16.99 22.98 -17.98 24.96 -19 27 C-15.51131349 29.32579101 -14.10281481 29.41865457 -10 29 C-7.65738392 27.62073227 -7.65738392 27.62073227 -6 26 C-6.33 24.68 -6.66 23.36 -7 22 C-10.05847848 21.45627049 -12.88772805 21 -16 21 Z " fill="#0F1773" transform="translate(216,307)"/>
<path d="M0 0 C0 0.66 0 1.32 0 2 C0.99 2.33 1.98 2.66 3 3 C2.34 4.98 1.68 6.96 1 9 C-3.52054795 10.25570776 -3.52054795 10.25570776 -5.875 9 C-9.05605637 7.50303229 -11.63441612 8.35277233 -15 9 C-15 9.99 -15 10.98 -15 12 C-13.6696875 11.938125 -13.6696875 11.938125 -12.3125 11.875 C-8.92155739 12.0029601 -7.03454531 12.55859098 -4 14 C-2.96875 14.45375 -1.9375 14.9075 -0.875 15.375 C2.13761438 17.07778204 3.49416443 17.90467133 5 21 C5.3728773 24.47328296 5.596169 27.807662 4 31 C3.34 31 2.68 31 2 31 C1.95875 31.598125 1.9175 32.19625 1.875 32.8125 C1 35 1 35 -1.5 36.6875 C-9.3114247 39.61678426 -15.38366047 39.44258547 -23 36 C-25.5625 34.625 -25.5625 34.625 -27 33 C-27.49160236 30.19084365 -27.40732201 28.70968027 -25.984375 26.23046875 C-24 25 -24 25 -20.20703125 25.58203125 C-18.73732227 25.974397 -17.2724774 26.38534504 -15.8125 26.8125 C-15.06291016 27.01681641 -14.31332031 27.22113281 -13.54101562 27.43164062 C-11.68963305 27.93870719 -9.8441795 28.46733135 -8 29 C-8 27.68 -8 26.36 -8 25 C-8.64066406 24.85304688 -9.28132813 24.70609375 -9.94140625 24.5546875 C-16.01318387 22.98018779 -20.9886776 21.01721976 -25 16 C-26.06076629 12.94009724 -25.99054367 11.08169142 -25 8 C-25.66 7.67 -26.32 7.34 -27 7 C-26.34 6.01 -25.68 5.02 -25 4 C-24.34 4 -23.68 4 -23 4 C-22.814375 3.401875 -22.62875 2.80375 -22.4375 2.1875 C-17.04054991 -6.02525013 -7.36597837 -3.04799105 0 0 Z " fill="#242976" transform="translate(295,307)"/>
<path d="M0 0 C0.07476562 0.70125 0.14953125 1.4025 0.2265625 2.125 C1.57182485 11.83199106 5.69021332 17.65401452 13.1875 23.8125 C16.01753095 25.66665821 18.69926356 26.32638032 22 27 C21.34 27.66 20.68 28.32 20 29 C17.6171875 28.7578125 17.6171875 28.7578125 14.875 28.125 C13.96492188 27.92132813 13.05484375 27.71765625 12.1171875 27.5078125 C11.41851562 27.34023437 10.71984375 27.17265625 10 27 C9.67 28.32 9.34 29.64 9 31 C7.35 31.33 5.7 31.66 4 32 C3.34 34.31 2.68 36.62 2 39 C4.31 39 6.62 39 9 39 C10.0625 41.375 10.0625 41.375 11 44 C10.67 44.66 10.34 45.32 10 46 C11.485 46.495 11.485 46.495 13 47 C11.3359375 47.68359375 11.3359375 47.68359375 9 48 C0.73541307 44.31714027 -5.63261847 38.64592021 -9.13671875 30.2890625 C-10.19619176 26.25251826 -10.2935118 22.58925088 -10.25 18.4375 C-10.25773438 17.69564453 -10.26546875 16.95378906 -10.2734375 16.18945312 C-10.25854885 12.00946582 -9.90517475 8.81790972 -8 5 C-7.01 5 -6.02 5 -5 5 C-5 4.01 -5 3.02 -5 2 C-1.125 0 -1.125 0 0 0 Z " fill="#6526B5" transform="translate(213,163)"/>
<path d="M0 0 C2.97 0 5.94 0 9 0 C10.37735369 10.40667229 9.66430201 20.56534838 9 31 C9.45375 30.505 9.9075 30.01 10.375 29.5 C12 28 12 28 14 28 C14 28.66 14 29.32 14 30 C14.66 29.67 15.32 29.34 16 29 C15.67 28.01 15.34 27.02 15 26 C16.98 26 18.96 26 21 26 C21 30.33333333 21 34.66666667 21 39 C20.01 39.66 19.02 40.32 18 41 C17.34 40.67 16.68 40.34 16 40 C16 39.01 16 38.02 16 37 C13.36 37 10.72 37 8 37 C7.67 41.29 7.34 45.58 7 50 C3.535 50.495 3.535 50.495 0 51 C0 34.17 0 17.34 0 0 Z " fill="#0F1873" transform="translate(230,292)"/>
<path d="M0 0 C3.4375 0.8125 3.4375 0.8125 7 2 C8.20250252 5.60750756 8.1433394 8.90569149 8.1328125 12.66015625 C8.13376923 13.40583359 8.13472595 14.15151093 8.13571167 14.91978455 C8.13639151 16.49413131 8.1345509 18.0684809 8.13037109 19.64282227 C8.1250125 22.0568671 8.13032655 24.47072652 8.13671875 26.88476562 C8.13605808 28.41406291 8.13477715 29.94336008 8.1328125 31.47265625 C8.13483673 32.19663101 8.13686096 32.92060577 8.13894653 33.66651917 C8.11496698 38.77006605 8.11496698 38.77006605 7 41 C3.37 41 -0.26 41 -4 41 C-4 28.13 -4 15.26 -4 2 C-2.68 2 -1.36 2 0 2 C0 1.34 0 0.68 0 0 Z " fill="#272D7C" transform="translate(351,304)"/>
<path d="M0 0 C1.8125 1.625 1.8125 1.625 3 3 C2.67 3.66 2.34 4.32 2 5 C1.01 5 0.02 5 -1 5 C-1.639375 4.34 -2.27875 3.68 -2.9375 3 C-7.67496663 -0.09385576 -12.4928043 0.68379738 -18 1 C-18 1.66 -18 2.32 -18 3 C-17.01 3 -16.02 3 -15 3 C-15 3.66 -15 4.32 -15 5 C-11.37 5 -7.74 5 -4 5 C-3.67 6.65 -3.34 8.3 -3 10 C-2.01 10 -1.02 10 0 10 C0 10.99 0 11.98 0 13 C-0.66 13 -1.32 13 -2 13 C-1.34 13.99 -0.68 14.98 0 16 C-0.3125 18.4375 -0.3125 18.4375 -1 21 C-1.185625 21.763125 -1.37125 22.52625 -1.5625 23.3125 C-1.706875 23.869375 -1.85125 24.42625 -2 25 C-2.66 25 -3.32 25 -4 25 C-4.99 27.475 -4.99 27.475 -6 30 C-7.65 30 -9.3 30 -11 30 C-10.34 29.4225 -9.68 28.845 -9 28.25 C-6.55709077 26.00346023 -6.55709077 26.00346023 -7 22 C-10.05074215 21.71219414 -12.96183742 21.54212089 -16 22 C-18.15602694 24.33749166 -18.15602694 24.33749166 -19 27 C-19.85651193 24.60176659 -20.11215995 23.35353341 -19.33203125 20.89453125 C-18 19 -18 19 -15.72265625 18.49609375 C-14.40587891 18.46708984 -14.40587891 18.46708984 -13.0625 18.4375 C-9.2795829 18.41088995 -9.2795829 18.41088995 -6.18359375 16.47265625 C-5.79300781 15.98667969 -5.40242188 15.50070312 -5 15 C-7.12563103 15.11376617 -9.2505261 15.24135631 -11.375 15.375 C-13.15003906 15.47941406 -13.15003906 15.47941406 -14.9609375 15.5859375 C-18.10562319 15.70217346 -18.10562319 15.70217346 -20 18 C-22.32275177 18.40047444 -24.65739357 18.7397104 -27 19 C-27 20.32 -27 21.64 -27 23 C-27.66 23 -28.32 23 -29 23 C-29 24.65 -29 26.3 -29 28 C-28.01 28.33 -27.02 28.66 -26 29 C-26 30.32 -26 31.64 -26 33 C-26.66 33 -27.32 33 -28 33 C-30.60018816 29.09971775 -30.15085514 25.52565431 -30 21 C-29.34 21 -28.68 21 -28 21 C-27.9071875 20.13375 -27.9071875 20.13375 -27.8125 19.25 C-26.65426021 16.04256673 -24.78859442 14.88067996 -22 13 C-18.58677263 11.82975062 -15.33506016 11.89853195 -11.75 11.9375 C-10.67234375 11.94652344 -9.5946875 11.95554687 -8.484375 11.96484375 C-7.66453125 11.97644531 -6.8446875 11.98804688 -6 12 C-7.78606801 9.92189054 -7.78606801 9.92189054 -10 8 C-14.6204762 8.17112875 -18.67610872 9.41808856 -23 11 C-24.98 7.535 -24.98 7.535 -27 4 C-25.625 2.5 -25.625 2.5 -24 1 C-23.34 1 -22.68 1 -22 1 C-22 0.34 -22 -0.32 -22 -1 C-14.25974172 -3.16798901 -7.43428265 -3.82334536 0 0 Z " fill="#373B86" transform="translate(216,307)"/>
<path d="M0 0 C2 2 2 2 2.5 5.125 C1.82689253 10.34158286 -0.2495913 13.37242128 -4 17 C-6.34149076 18.43749749 -8.34543197 19.14853478 -11 20 C-11.99 20.33 -12.98 20.66 -14 21 C-21.83140105 21.87654214 -29.43221917 20.62343064 -35.73828125 15.62109375 C-37.125 14.25 -37.125 14.25 -39 12 C-38.67 11.01 -38.34 10.02 -38 9 C-37.34 9 -36.68 9 -36 9 C-36 8.34 -36 7.68 -36 7 C-35.34 7 -34.68 7 -34 7 C-33.67 6.01 -33.34 5.02 -33 4 C-32.01 4.33 -31.02 4.66 -30 5 C-30 5.66 -30 6.32 -30 7 C-25.53177857 9.16204263 -20.95144133 10.10424087 -16 10 C-12.52903143 8.72746144 -12.52903143 8.72746144 -10 7 C-10 7.66 -10 8.32 -10 9 C-7.03 9.495 -7.03 9.495 -4 10 C-3.505 11.485 -3.505 11.485 -3 13 C-0.96834048 8.66579301 -0.47939368 4.71403788 0 0 Z " fill="#1C206E" transform="translate(181,325)"/>
<path d="M0 0 C4.09543334 0.53418696 7.53185019 1.93012643 10.875 4.375 C11.875 7.125 11.875 7.125 11.875 9.375 C12.535 9.375 13.195 9.375 13.875 9.375 C14.8499829 13.60265695 15.19070171 17.8055221 15.4375 22.125 C15.5001001 23.18581787 15.5001001 23.18581787 15.56396484 24.26806641 C16.3580316 38.4089368 16.3580316 38.4089368 14.875 41.375 C11.245 41.375 7.615 41.375 3.875 41.375 C3.875 40.715 3.875 40.055 3.875 39.375 C3.215 39.375 2.555 39.375 1.875 39.375 C2.03871094 38.72144531 2.20242188 38.06789063 2.37109375 37.39453125 C3.00348563 33.60508226 2.98196709 29.89009049 2.9375 26.0625 C2.93298828 25.32193359 2.92847656 24.58136719 2.92382812 23.81835938 C2.91212175 22.00387101 2.89418898 20.18942466 2.875 18.375 C3.535 18.045 4.195 17.715 4.875 17.375 C5.205 20.675 5.535 23.975 5.875 27.375 C6.019375 26.653125 6.16375 25.93125 6.3125 25.1875 C6.83333333 22.58333333 7.35416667 19.97916667 7.875 17.375 C9.195 17.045 10.515 16.715 11.875 16.375 C11.215 15.776875 10.555 15.17875 9.875 14.5625 C7.875 12.375 7.875 12.375 7.875 9.375 C7.215 9.375 6.555 9.375 5.875 9.375 C5.875 8.055 5.875 6.735 5.875 5.375 C4.555 4.715 3.235 4.055 1.875 3.375 C1.875 2.715 1.875 2.055 1.875 1.375 C-0.105 1.705 -2.085 2.035 -4.125 2.375 C-2.125 0.375 -2.125 0.375 0 0 Z " fill="#131A70" transform="translate(326.125,303.625)"/>
<path d="M0 0 C1.96875 1.546875 1.96875 1.546875 2.875 4.03125 C2.96875 6.546875 2.96875 6.546875 0.96875 9.546875 C0.30875 9.546875 -0.35125 9.546875 -1.03125 9.546875 C-1.03125 10.206875 -1.03125 10.866875 -1.03125 11.546875 C-6.90625 9.671875 -6.90625 9.671875 -8.03125 8.546875 C-9.79181169 8.23259291 -11.56632369 7.99462839 -13.34375 7.796875 C-14.79201172 7.61898438 -14.79201172 7.61898438 -16.26953125 7.4375 C-19.55098712 7.56745865 -20.55502763 8.5073198 -23.03125 10.546875 C-25.78125 10.234375 -25.78125 10.234375 -28.03125 9.546875 C-28.03125 8.886875 -28.03125 8.226875 -28.03125 7.546875 C-28.69125 7.546875 -29.35125 7.546875 -30.03125 7.546875 C-29.70125 5.896875 -29.37125 4.246875 -29.03125 2.546875 C-28.37125 2.546875 -27.71125 2.546875 -27.03125 2.546875 C-26.94875 1.92425781 -26.86625 1.30164063 -26.78125 0.66015625 C-26.03125 -1.453125 -26.03125 -1.453125 -24.28125 -2.53515625 C-15.0210341 -5.54151107 -8.68471924 -4.12792211 0 0 Z " fill="#111871" transform="translate(177.03125,294.453125)"/>
<path d="M0 0 C1.4800841 0.11362262 2.95910074 0.24122908 4.4375 0.375 C5.26121094 0.44460938 6.08492188 0.51421875 6.93359375 0.5859375 C7.61550781 0.72257812 8.29742187 0.85921875 9 1 C10.35439668 3.70879335 10.06501451 6.00933268 10 9 C8.35 9 6.7 9 5 9 C5.495 9.53625 5.99 10.0725 6.5 10.625 C8.37489544 13.59358445 8.23501425 15.55312427 8 19 C-0.38071895 22.43376679 -6.44557376 22.49953801 -15 19 C-17.375 17.6875 -17.375 17.6875 -19 16 C-19.4375 13.5 -19.4375 13.5 -19 11 C-17.47265625 9.34375 -17.47265625 9.34375 -16 8 C-15.35933594 8.20496094 -14.71867187 8.40992188 -14.05859375 8.62109375 C-9.02712149 10.18827364 -4.24011997 11.43042174 1 12 C1.67801034 9.09926819 1.67801034 9.09926819 2 6 C1.34 5.34 0.68 4.68 0 4 C-0.33 3.34 -0.66 2.68 -1 2 C-0.67 1.34 -0.34 0.68 0 0 Z " fill="#47468E" transform="translate(287,324)"/>
<path d="M0 0 C1.20849609 -0.00386719 1.20849609 -0.00386719 2.44140625 -0.0078125 C4.4375 0.125 4.4375 0.125 5.4375 1.125 C5.67403523 3.65096259 5.85923692 6.15607207 6 8.6875 C6.04318359 9.39841797 6.08636719 10.10933594 6.13085938 10.84179688 C6.23721777 12.60261912 6.33788846 14.3637832 6.4375 16.125 C7.7575 15.795 9.0775 15.465 10.4375 15.125 C10.7675 16.115 11.0975 17.105 11.4375 18.125 C9.4575 18.125 7.4775 18.125 5.4375 18.125 C5.1075 18.785 4.7775 19.445 4.4375 20.125 C4.1075 14.845 3.7775 9.565 3.4375 4.125 C1.4575 4.125 -0.5225 4.125 -2.5625 4.125 C-2.58755615 5.18299805 -2.6126123 6.24099609 -2.63842773 7.33105469 C-2.73365654 11.31210408 -2.8335796 15.29302497 -2.93481445 19.27392578 C-2.97773229 20.98645999 -3.01943082 22.69902525 -3.05981445 24.41162109 C-3.28711128 34.01421051 -3.58585621 43.56227922 -4.5625 53.125 C-1.5925 53.125 1.3775 53.125 4.4375 53.125 C4.4375 45.205 4.4375 37.285 4.4375 29.125 C4.7675 29.125 5.0975 29.125 5.4375 29.125 C5.46636751 33.27081887 5.48425327 37.41661216 5.5 41.5625 C5.50837891 42.74650391 5.51675781 43.93050781 5.52539062 45.15039062 C5.52861328 46.27509766 5.53183594 47.39980469 5.53515625 48.55859375 C5.54039307 49.60072021 5.54562988 50.64284668 5.55102539 51.71655273 C5.4375 54.125 5.4375 54.125 4.4375 55.125 C2.77320949 55.22323937 1.10468069 55.25473631 -0.5625 55.25 C-1.92375 55.25386719 -1.92375 55.25386719 -3.3125 55.2578125 C-5.5625 55.125 -5.5625 55.125 -6.5625 54.125 C-6.65596915 52.46761557 -6.67994977 50.80625356 -6.67602539 49.14624023 C-6.67594986 48.08521591 -6.67587433 47.02419159 -6.67579651 45.93101501 C-6.67063522 44.776866 -6.66547394 43.62271698 -6.66015625 42.43359375 C-6.6587413 41.25861832 -6.65732635 40.08364288 -6.65586853 38.87306213 C-6.65024992 35.10284936 -6.63769426 31.33269496 -6.625 27.5625 C-6.6199874 25.01367273 -6.61542408 22.46484453 -6.61132812 19.91601562 C-6.60027444 13.65232367 -6.58351821 7.38866601 -6.5625 1.125 C-4.1828388 -0.0648306 -2.64764265 -0.00849966 0 0 Z " fill="#6C6E9B" transform="translate(310.5625,289.875)"/>
<path d="M0 0 C0.99 0.33 1.98 0.66 3 1 C3 2.32 3 3.64 3 5 C3.66 5.2475 4.32 5.495 5 5.75 C7.45754602 6.77397751 9.85302166 7.84462195 12.25 9 C12.93578125 9.33 13.6215625 9.66 14.328125 10 C16 11 16 11 17 13 C17.78375 13.45375 18.5675 13.9075 19.375 14.375 C22.1302508 16.08063145 23.32098681 17.26258309 25 20 C26.29678744 27.41855876 24.57966321 33.52784108 21 40 C20.34 40 19.68 40 19 40 C19 36.37 19 32.74 19 29 C19.99 28.67 20.98 28.34 22 28 C22.66 28.33 23.32 28.66 24 29 C24 27.68 24 26.36 24 25 C23.01 24.67 22.02 24.34 21 24 C21 22.35 21 20.7 21 19 C20.01 19 19.02 19 18 19 C17.67 19.99 17.34 20.98 17 22 C15.35 22.33 13.7 22.66 12 23 C11.79246094 22.27554688 11.58492188 21.55109375 11.37109375 20.8046875 C9.40870669 14.64656912 7.69973339 11.17002362 2.484375 7.34765625 C1 6 1 6 0.0625 2.625 C0.0315625 1.325625 0.0315625 1.325625 0 0 Z " fill="#1535A4" transform="translate(261,218)"/>
<path d="M0 0 C5.46955484 1.16564283 10.04550318 2.26637778 14.3125 6 C16.39658966 9.90766811 16.17320296 12.4119239 15.8125 16.8125 C15.4825 17.4725 15.1525 18.1325 14.8125 18.8125 C14.1525 18.8125 13.4925 18.8125 12.8125 18.8125 C12.4825 20.1325 12.1525 21.4525 11.8125 22.8125 C11.1525 22.8125 10.4925 22.8125 9.8125 22.8125 C9.85375 22.07 9.895 21.3275 9.9375 20.5625 C9.80851866 17.72491048 9.24198778 16.22476062 7.8125 13.8125 C8.8025 13.4825 9.7925 13.1525 10.8125 12.8125 C11.4725 13.1425 12.1325 13.4725 12.8125 13.8125 C12.4825 11.1725 12.1525 8.5325 11.8125 5.8125 C8.8425 5.4825 5.8725 5.1525 2.8125 4.8125 C3.71674596 7.76094013 3.71674596 7.76094013 5 10.1875 C6.01699087 13.4731628 5.35227806 14.81848711 3.8125 17.8125 C2.8225 17.4825 1.8325 17.1525 0.8125 16.8125 C1.4725 16.8125 2.1325 16.8125 2.8125 16.8125 C2.8125 15.4925 2.8125 14.1725 2.8125 12.8125 C2.10222656 12.64234375 1.39195312 12.4721875 0.66015625 12.296875 C-0.25894531 12.05453125 -1.17804688 11.8121875 -2.125 11.5625 C-3.04152344 11.33046875 -3.95804687 11.0984375 -4.90234375 10.859375 C-7.1875 9.8125 -7.1875 9.8125 -8.05078125 7.8359375 C-8.22798714 5.21329036 -7.63696692 3.98670037 -6.1875 1.8125 C-3.1875 -0.1875 -3.1875 -0.1875 0 0 Z " fill="#323681" transform="translate(284.1875,319.1875)"/>
<path d="M0 0 C-0.8125 2.5 -0.8125 2.5 -3 5 C-6.69681924 5.46346554 -10.29212965 5.28328381 -14 5 C-14.06058594 5.69867188 -14.12117187 6.39734375 -14.18359375 7.1171875 C-14.26738281 8.02726562 -14.35117188 8.93734375 -14.4375 9.875 C-14.51871094 10.77992188 -14.59992188 11.68484375 -14.68359375 12.6171875 C-15 15 -15 15 -16 17 C-16.66 17 -17.32 17 -18 17 C-18 17.99 -18 18.98 -18 20 C-19.32 20 -20.64 20 -22 20 C-22.12375 19.195625 -22.2475 18.39125 -22.375 17.5625 C-22.58125 16.716875 -22.7875 15.87125 -23 15 C-23.66 14.67 -24.32 14.34 -25 14 C-25 12.35 -25 10.7 -25 9 C-24.34 9 -23.68 9 -23 9 C-23 7.68 -23 6.36 -23 5 C-20.36 4.01 -17.72 3.02 -15 2 C-15 1.67 -15 1.34 -15 1 C-13.43784452 0.83013455 -11.8752548 0.66426036 -10.3125 0.5 C-9.44238281 0.4071875 -8.57226562 0.314375 -7.67578125 0.21875 C-5.10276661 0.00840136 -2.58015636 -0.03719144 0 0 Z " fill="#0F1770" transform="translate(212,321)"/>
<path d="M0 0 C2.12955314 4.25910628 2.18689234 5.8883686 1.9765625 10.515625 C1.925 11.76601563 1.8734375 13.01640625 1.8203125 14.3046875 C1.75585938 15.60664063 1.69140625 16.90859375 1.625 18.25 C1.56828125 19.56742187 1.5115625 20.88484375 1.453125 22.2421875 C1.31168341 25.49534406 1.16026986 28.74772552 1 32 C-2.3 32 -5.6 32 -9 32 C-9 31.34 -9 30.68 -9 30 C-9.53367188 30.23976563 -10.06734375 30.47953125 -10.6171875 30.7265625 C-16.99752217 33.26545 -21.46577643 32.89615256 -28 31 C-28 30.34 -28 29.68 -28 29 C-28.66 28.67 -29.32 28.34 -30 28 C-28.68 28 -27.36 28 -26 28 C-26 27.01 -26 26.02 -26 25 C-25.34 25 -24.68 25 -24 25 C-23.34 23.68 -22.68 22.36 -22 21 C-20.02 21.66 -18.04 22.32 -16 23 C-16 23.66 -16 24.32 -16 25 C-16.66 25.33 -17.32 25.66 -18 26 C-17.67 26.99 -17.34 27.98 -17 29 C-13.37471432 29.20140476 -11.13498292 28.85776765 -8 27 C-8 27.99 -8 28.98 -8 30 C-5.36 30 -2.72 30 0 30 C0 20.1 0 10.2 0 0 Z " fill="#2F337B" transform="translate(220,313)"/>
<path d="M0 0 C1.4800841 0.11362262 2.95910074 0.24122908 4.4375 0.375 C5.26121094 0.44460938 6.08492188 0.51421875 6.93359375 0.5859375 C7.61550781 0.72257812 8.29742187 0.85921875 9 1 C10.35439668 3.70879335 10.06501451 6.00933268 10 9 C8.35 9 6.7 9 5 9 C5.515625 9.556875 6.03125 10.11375 6.5625 10.6875 C8 13 8 13 7.6875 15.75 C7.460625 16.4925 7.23375 17.235 7 18 C4.8125 18.6875 4.8125 18.6875 2 19 C-0.75 17.5625 -0.75 17.5625 -3 16 C-3.33 16 -3.66 16 -4 16 C-4.66 16 -5.32 16 -6 16 C-6 16.66 -6 17.32 -6 18 C-6.99 17.67 -7.98 17.34 -9 17 C-8.67 15.68 -8.34 14.36 -8 13 C-4.94152152 12.45627049 -2.11227195 12 1 12 C1.67801034 9.09926819 1.67801034 9.09926819 2 6 C1.34 5.34 0.68 4.68 0 4 C-0.33 3.34 -0.66 2.68 -1 2 C-0.67 1.34 -0.34 0.68 0 0 Z " fill="#0F1770" transform="translate(287,324)"/>
<path d="M0 0 C3.3 0 6.6 0 10 0 C10 0.33 10 0.66 10 1 C7.03 1 4.06 1 1 1 C1 17.83 1 34.66 1 52 C4.465 51.505 4.465 51.505 8 51 C7.98839844 50.22914063 7.97679687 49.45828125 7.96484375 48.6640625 C7.95130859 47.15972656 7.95130859 47.15972656 7.9375 45.625 C7.92589844 44.62726563 7.91429687 43.62953125 7.90234375 42.6015625 C8 40 8 40 9 38 C11.64 38 14.28 38 17 38 C17 38.99 17 39.98 17 41 C18.485 41.495 18.485 41.495 20 42 C20.33 43.65 20.66 45.3 21 47 C20.34 47 19.68 47 19 47 C15 41.58823529 15 41.58823529 15 39 C12.69623147 40.81098382 12.04858979 41.72837512 11.5234375 44.6640625 C11.44996094 46.12972656 11.44996094 46.12972656 11.375 47.625 C11.08333333 52.91666667 11.08333333 52.91666667 10 54 C8.50261876 54.0979057 7.00057108 54.12974864 5.5 54.125 C4.6853125 54.12757813 3.870625 54.13015625 3.03125 54.1328125 C1 54 1 54 0 53 C-0.09346915 51.34261557 -0.11744977 49.68125356 -0.11352539 48.02124023 C-0.11344986 46.96021591 -0.11337433 45.89919159 -0.11329651 44.80601501 C-0.10813522 43.651866 -0.10297394 42.49771698 -0.09765625 41.30859375 C-0.0962413 40.13361832 -0.09482635 38.95864288 -0.09336853 37.74806213 C-0.08774992 33.97784936 -0.07519426 30.20769496 -0.0625 26.4375 C-0.0574874 23.88867273 -0.05292408 21.33984453 -0.04882812 18.79101562 C-0.03777444 12.5273211 -0.02049734 6.26367046 0 0 Z " fill="#4F5085" transform="translate(229,291)"/>
<path d="M0 0 C1.5625 1.625 1.5625 1.625 2 4 C1.5 7.625 1.5 7.625 0 11 C-2.875 12.5625 -2.875 12.5625 -6 13 C-8.1171875 12.31640625 -8.1171875 12.31640625 -10 11 C-10.828125 8.8359375 -10.828125 8.8359375 -11.25 6.375 C-11.39953125 5.55773437 -11.5490625 4.74046875 -11.703125 3.8984375 C-11.85007812 2.95871094 -11.85007812 2.95871094 -12 2 C-7.77450851 -1.20112992 -5.0934635 -1.44154627 0 0 Z " fill="#252B77" transform="translate(358,290)"/>
<path d="M0 0 C1.8125 1.625 1.8125 1.625 3 3 C2.67 3.66 2.34 4.32 2 5 C1.01 5 0.02 5 -1 5 C-1.639375 4.34 -2.27875 3.68 -2.9375 3 C-7.67496663 -0.09385576 -12.4928043 0.68379738 -18 1 C-18 1.66 -18 2.32 -18 3 C-17.01 3 -16.02 3 -15 3 C-15.75 4.9375 -15.75 4.9375 -17 7 C-18.32594105 7.36162029 -19.65938457 7.69728039 -21 8 C-21.33 8.99 -21.66 9.98 -22 11 C-24.52588702 8.63707344 -25.88820837 7.33537489 -27 4 C-25.625 2.5 -25.625 2.5 -24 1 C-23.34 1 -22.68 1 -22 1 C-22 0.34 -22 -0.32 -22 -1 C-14.25974172 -3.16798901 -7.43428265 -3.82334536 0 0 Z " fill="#2C307D" transform="translate(216,307)"/>
<path d="M0 0 C1.35358503 2.70717007 0.95126377 4.73470068 0.8125 7.75 C0.7595596 13.26241947 1.20606416 15.98926782 5 20 C5.99 20.33 6.98 20.66 8 21 C8.33 19.68 8.66 18.36 9 17 C9.6708712 18.6232687 10.33657029 20.24867578 11 21.875 C11.37125 22.77992188 11.7425 23.68484375 12.125 24.6171875 C13 27 13 27 13 29 C13.66 29 14.32 29 15 29 C15 29.66 15 30.32 15 31 C15.66 31.33 16.32 31.66 17 32 C9.97734977 31.04901611 5.43186464 26.05196749 1.125 20.6875 C-1.69019672 16.53579574 -2.34036154 11.89313901 -3 7 C-4.32 7.33 -5.64 7.66 -7 8 C-7 8.99 -7 9.98 -7 11 C-7.66 11 -8.32 11 -9 11 C-7.87548273 8.0280615 -6.77706209 5.66559313 -5 3 C-4.34 3 -3.68 3 -3 3 C-3 2.34 -3 1.68 -3 1 C-2.01 0.67 -1.02 0.34 0 0 Z " fill="#C93AA3" transform="translate(215,157)"/>
<path d="M0 0 C0.763125 0.20625 1.52625 0.4125 2.3125 0.625 C2.23 1.718125 2.1475 2.81125 2.0625 3.9375 C1.90146039 7.65942858 1.90146039 7.65942858 4.3125 9.5625 C4.9725 9.913125 5.6325 10.26375 6.3125 10.625 C4.3325 11.285 2.3525 11.945 0.3125 12.625 C0.6425 13.945 0.9725 15.265 1.3125 16.625 C-1.37424602 16.26192621 -3.24622304 15.95595772 -5.4375 14.3125 C-6.95978226 12.25741895 -7.47361693 11.19159684 -7.6875 8.625 C-5.73738309 -0.80056508 -5.73738309 -0.80056508 0 0 Z " fill="#0F1976" transform="translate(276.6875,310.375)"/>
<path d="M0 0 C0.99 0.33 1.98 0.66 3 1 C3.32712342 7.13053511 3.39366878 11.62669111 0 17 C-0.33 15.68 -0.66 14.36 -1 13 C-1.598125 13.20625 -2.19625 13.4125 -2.8125 13.625 C-5 14 -5 14 -8 12 C-7.34 9.03 -6.68 6.06 -6 3 C-4.02 2.67 -2.04 2.34 0 2 C0 1.34 0 0.68 0 0 Z " fill="#10176E" transform="translate(178,322)"/>
<path d="M0 0 C2 2 2 2 2.5 5.125 C1.82689253 10.34158286 -0.2495913 13.37242128 -4 17 C-6.34149076 18.43749749 -8.34543197 19.14853478 -11 20 C-11.99 20.33 -12.98 20.66 -14 21 C-15.56118428 21.06740865 -17.1250252 21.08514456 -18.6875 21.0625 C-19.89986328 21.04896484 -19.89986328 21.04896484 -21.13671875 21.03515625 C-21.75160156 21.02355469 -22.36648437 21.01195312 -23 21 C-23 20.67 -23 20.34 -23 20 C-21.02 19.67 -19.04 19.34 -17 19 C-17 18.67 -17 18.34 -17 18 C-15.02 17.67 -13.04 17.34 -11 17 C-10.67 15.68 -10.34 14.36 -10 13 C-10.639375 12.87625 -11.27875 12.7525 -11.9375 12.625 C-12.618125 12.41875 -13.29875 12.2125 -14 12 C-14.33 11.34 -14.66 10.68 -15 10 C-13.35 9.01 -11.7 8.02 -10 7 C-10 7.66 -10 8.32 -10 9 C-7.03 9.495 -7.03 9.495 -4 10 C-3.67 10.99 -3.34 11.98 -3 13 C-0.96834048 8.66579301 -0.47939368 4.71403788 0 0 Z " fill="#121873" transform="translate(181,325)"/>
<path d="M0 0 C0.33 0.66 0.66 1.32 1 2 C1.99 1.67 2.98 1.34 4 1 C7.1875 2.4375 7.1875 2.4375 10 4 C9.67 4.99 9.34 5.98 9 7 C8.34 7 7.68 7 7 7 C7 7.66 7 8.32 7 9 C6.34 9 5.68 9 5 9 C5.66 10.98 6.32 12.96 7 15 C6.01 15 5.02 15 4 15 C3.34 14.01 2.68 13.02 2 12 C2.875 8.8125 2.875 8.8125 4 6 C2.35 6.33 0.7 6.66 -1 7 C-0.67 7.99 -0.34 8.98 0 10 C-0.99 10 -1.98 10 -3 10 C-3 9.34 -3 8.68 -3 8 C-3.66 8 -4.32 8 -5 8 C-5.66 9.32 -6.32 10.64 -7 12 C-7.66 11.67 -8.32 11.34 -9 11 C-8.67 7.7 -8.34 4.4 -8 1 C-6 3 -6 3 -6 6 C-4.02 4.02 -2.04 2.04 0 0 Z " fill="#2A2E7E" transform="translate(247,312)"/>
<path d="M0 0 C4.7083158 -0.32848715 7.20408217 0.17739444 11 3 C13.8125 5.5 13.8125 5.5 16 8 C16 8.99 16 9.98 16 11 C15.01 10.34 14.02 9.68 13 9 C13 9.66 13 10.32 13 11 C11.7934375 11.3403125 11.7934375 11.3403125 10.5625 11.6875 C9.716875 12.120625 8.87125 12.55375 8 13 C7.10613836 15.54775306 7.10613836 15.54775306 7 18 C5 15 5 15 5 13 C4.01 12.67 3.02 12.34 2 12 C2.99 11.67 3.98 11.34 5 11 C6.66710346 9.50014391 6.66710346 9.50014391 8 8 C7.67 7.01 7.34 6.02 7 5 C6.21625 5.185625 5.4325 5.37125 4.625 5.5625 C2 6 2 6 0 5 C-0.33 5.66 -0.66 6.32 -1 7 C-1.66 7 -2.32 7 -3 7 C-3.33 6.01 -3.66 5.02 -4 4 C-2.02 3.34 -0.04 2.68 2 2 C1.34 1.34 0.68 0.68 0 0 Z " fill="#42468F" transform="translate(165,313)"/>
<path d="M0 0 C0.33 0 0.66 0 1 0 C1 6.27 1 12.54 1 19 C-1 15 -1 15 -2 12 C-3.65 13.65 -5.3 15.3 -7 17 C-7 11.72 -7 6.44 -7 1 C-5.02 1 -3.04 1 -1 1 C-0.67 0.67 -0.34 0.34 0 0 Z " fill="#0F166D" transform="translate(314,292)"/>
<path d="M0 0 C6.9445071 0.33602454 13.3984739 1.59880092 19 6 C19.90625 8.484375 19.90625 8.484375 20 11 C19.01 12.485 19.01 12.485 18 14 C17.34 14 16.68 14 16 14 C16 14.66 16 15.32 16 16 C13.97954558 15.39816251 11.97888961 14.72693904 10 14 C9.67 13.34 9.34 12.68 9 12 C11.31 12.33 13.62 12.66 16 13 C16 12.34 16 11.68 16 11 C14.68 10.67 13.36 10.34 12 10 C12 9.34 12 8.68 12 8 C11.01 7.67 10.02 7.34 9 7 C9.66 6.01 10.32 5.02 11 4 C10.01 4 9.02 4 8 4 C8 3.34 8 2.68 8 2 C5.03 2 2.06 2 -1 2 C-0.67 1.34 -0.34 0.68 0 0 Z " fill="#555791" transform="translate(160,290)"/>
<path d="M0 0 C0.66 0 1.32 0 2 0 C2 12.21 2 24.42 2 37 C4.97 37 7.94 37 11 37 C11 37.66 11 38.32 11 39 C7.37 39 3.74 39 0 39 C0 26.13 0 13.26 0 0 Z " fill="#616197" transform="translate(347,306)"/>
<path d="M0 0 C0.33 1.32 0.66 2.64 1 4 C0.08476562 4.12117188 -0.83046875 4.24234375 -1.7734375 4.3671875 C-3.55621094 4.61855469 -3.55621094 4.61855469 -5.375 4.875 C-6.55835938 5.03742188 -7.74171875 5.19984375 -8.9609375 5.3671875 C-12.09566659 5.7302585 -12.09566659 5.7302585 -14 8 C-16.32275177 8.40047444 -18.65739357 8.7397104 -21 9 C-21 10.32 -21 11.64 -21 13 C-21.66 13 -22.32 13 -23 13 C-23 14.65 -23 16.3 -23 18 C-22.01 18.33 -21.02 18.66 -20 19 C-20 20.32 -20 21.64 -20 23 C-20.66 23 -21.32 23 -22 23 C-24.60018816 19.09971775 -24.15085514 15.52565431 -24 11 C-23.34 11 -22.68 11 -22 11 C-21.9071875 10.13375 -21.9071875 10.13375 -21.8125 9.25 C-20.65426021 6.04256673 -18.78859442 4.88067996 -16 3 C-12.58677263 1.82975062 -9.33506016 1.89853195 -5.75 1.9375 C-4.67234375 1.94652344 -3.5946875 1.95554687 -2.484375 1.96484375 C-1.66453125 1.97644531 -0.8446875 1.98804688 0 2 C0 1.34 0 0.68 0 0 Z " fill="#414382" transform="translate(210,317)"/>
<path d="M0 0 C0.66 0 1.32 0 2 0 C2.16971023 2.97902065 2.33583751 5.95817256 2.5 8.9375 C2.54769531 9.76830078 2.59539062 10.59910156 2.64453125 11.45507812 C3.4921875 27.015625 3.4921875 27.015625 2 30 C-1.63 30 -5.26 30 -9 30 C-9 29.34 -9 28.68 -9 28 C-9.66 28 -10.32 28 -11 28 C-10.67 26.35 -10.34 24.7 -10 23 C-9.835 23.639375 -9.67 24.27875 -9.5 24.9375 C-9.005 25.618125 -8.51 26.29875 -8 27 C-5.36 27.33 -2.72 27.66 0 28 C0 18.76 0 9.52 0 0 Z " fill="#8481A6" transform="translate(339,315)"/>
<path d="M0 0 C3.4375 0.1875 3.4375 0.1875 4.4375 1.1875 C4.67403523 3.71346259 4.85923692 6.21857207 5 8.75 C5.04318359 9.46091797 5.08636719 10.17183594 5.13085938 10.90429688 C5.23721777 12.66511912 5.33788846 14.4262832 5.4375 16.1875 C6.7575 15.8575 8.0775 15.5275 9.4375 15.1875 C9.7675 16.1775 10.0975 17.1675 10.4375 18.1875 C8.4575 18.1875 6.4775 18.1875 4.4375 18.1875 C4.1075 18.8475 3.7775 19.5075 3.4375 20.1875 C3.1075 14.9075 2.7775 9.6275 2.4375 4.1875 C0.4575 4.1875 -1.5225 4.1875 -3.5625 4.1875 C-3.8925 16.3975 -4.2225 28.6075 -4.5625 41.1875 C-4.8925 41.1875 -5.2225 41.1875 -5.5625 41.1875 C-5.6118521 35.66993524 -5.64819662 30.15249829 -5.67236328 24.63476562 C-5.68243534 22.75681318 -5.69609362 20.87887647 -5.71337891 19.00097656 C-5.73757453 16.3052991 -5.74897083 13.60982854 -5.7578125 10.9140625 C-5.76813507 10.07130768 -5.77845764 9.22855286 -5.78909302 8.36026001 C-5.78949144 6.30128753 -5.68507588 4.24282065 -5.5625 2.1875 C-3.5625 0.1875 -3.5625 0.1875 0 0 Z " fill="#555795" transform="translate(311.5625,289.8125)"/>
<path d="M0 0 C4.75097043 4.19203274 8.3879305 9.20631201 11 15 C10.67 15.99 10.34 16.98 10 18 C8.39667209 18.08121924 6.79215974 18.13929134 5.1875 18.1875 C3.84751953 18.23970703 3.84751953 18.23970703 2.48046875 18.29296875 C-0.41647515 17.95081002 -1.22555028 17.24606427 -3 15 C-2.34 14.67 -1.68 14.34 -1 14 C-1 14.66 -1 15.32 -1 16 C0.98491642 15.73323796 0.98491642 15.73323796 3 15 C4.15941038 11.52176885 3.70820884 9.54104422 3 6 C2.01 5.67 1.02 5.34 0 5 C0 3.35 0 1.7 0 0 Z " fill="#4B4988" transform="translate(254,327)"/>
<path d="M0 0 C0.66 0 1.32 0 2 0 C2 0.66 2 1.32 2 2 C2.763125 1.773125 3.52625 1.54625 4.3125 1.3125 C5.199375 1.209375 6.08625 1.10625 7 1 C8.8125 2.4375 8.8125 2.4375 10 4 C8.02 4.66 6.04 5.32 4 6 C7.74161103 6 11.28953557 5.48661829 15 5 C15.33 6.65 15.66 8.3 16 10 C15.34 10 14.68 10 14 10 C12.37485532 11.45833358 12.37485532 11.45833358 11 13 C9.88625 12.2884375 9.88625 12.2884375 8.75 11.5625 C6.38949985 10.22130673 4.63351523 9.487688 2 9 C2 8.34 2 7.68 2 7 C1.34 6.67 0.68 6.34 0 6 C0.66 6 1.32 6 2 6 C1.34 4.02 0.68 2.04 0 0 Z " fill="#0F1775" transform="translate(158,312)"/>
<path d="M0 0 C4.875 3.75 4.875 3.75 6 6 C6.79371484 13.61185548 5.69245336 19.32391246 2 26 C1.34 26 0.68 26 0 26 C0 22.37 0 18.74 0 15 C0.99 14.67 1.98 14.34 3 14 C3.66 14.33 4.32 14.66 5 15 C5 13.68 5 12.36 5 11 C4.01 10.67 3.02 10.34 2 10 C1.855625 8.906875 1.71125 7.81375 1.5625 6.6875 C1.11711896 3.06877013 1.11711896 3.06877013 0 0 Z " fill="#2931B9" transform="translate(280,232)"/>
<path d="M0 0 C2.12955314 4.25910628 2.18689234 5.8883686 1.9765625 10.515625 C1.925 11.76601563 1.8734375 13.01640625 1.8203125 14.3046875 C1.75585938 15.60664063 1.69140625 16.90859375 1.625 18.25 C1.56828125 19.56742187 1.5115625 20.88484375 1.453125 22.2421875 C1.31168341 25.49534406 1.16026986 28.74772552 1 32 C-2.3 32 -5.6 32 -9 32 C-9 31.34 -9 30.68 -9 30 C-11.97 30.66 -14.94 31.32 -18 32 C-18 31.01 -18 30.02 -18 29 C-17.0925 29.04125 -16.185 29.0825 -15.25 29.125 C-12.1217954 29.00468444 -10.61385994 28.6085292 -8 27 C-8 27.99 -8 28.98 -8 30 C-5.36 30 -2.72 30 0 30 C0 20.1 0 10.2 0 0 Z " fill="#636394" transform="translate(220,313)"/>
<path d="M0 0 C0.66 0.33 1.32 0.66 2 1 C3.40171617 6.70698728 3.14516348 10.04948292 0.2578125 15.16796875 C-1.56496982 17.82289083 -3.59483761 19.86207787 -6 22 C-6 20.02 -6 18.04 -6 16 C-5.01 16 -4.02 16 -3 16 C-1.93340687 11.84315297 -1.93340687 11.84315297 -3.0625 7.875 C-3.371875 7.25625 -3.68125 6.6375 -4 6 C-3.125 3.75 -3.125 3.75 -2 2 C-2 2.99 -2 3.98 -2 5 C-1.34 5 -0.68 5 0 5 C0 3.35 0 1.7 0 0 Z " fill="#5639D5" transform="translate(292,234)"/>
<path d="M0 0 C4.09376205 0.53396896 7.53437128 1.92834235 10.875 4.375 C11.75 7.0625 11.75 7.0625 11.875 9.375 C12.535 9.705 13.195 10.035 13.875 10.375 C13.215 10.375 12.555 10.375 11.875 10.375 C11.545 11.695 11.215 13.015 10.875 14.375 C9.885 13.715 8.895 13.055 7.875 12.375 C7.875 11.385 7.875 10.395 7.875 9.375 C7.215 9.375 6.555 9.375 5.875 9.375 C5.875 8.055 5.875 6.735 5.875 5.375 C4.555 4.715 3.235 4.055 1.875 3.375 C1.875 2.715 1.875 2.055 1.875 1.375 C-0.105 1.705 -2.085 2.035 -4.125 2.375 C-2.125 0.375 -2.125 0.375 0 0 Z " fill="#2C3280" transform="translate(326.125,303.625)"/>
<path d="M0 0 C0.66 0 1.32 0 2 0 C2 0.99 2 1.98 2 3 C6.455 2.505 6.455 2.505 11 2 C12.0625 4.375 12.0625 4.375 13 7 C12.67 7.66 12.34 8.32 12 9 C12.99 9.33 13.98 9.66 15 10 C13.359375 10.703125 13.359375 10.703125 11 11 C8.203125 9.671875 8.203125 9.671875 5.25 7.75 C3.77273437 6.81414062 3.77273437 6.81414062 2.265625 5.859375 C1.51796875 5.24578125 0.7703125 4.6321875 0 4 C0 2.66666667 0 1.33333333 0 0 Z " fill="#5E31B8" transform="translate(211,200)"/>
<path d="M0 0 C0.86625 0.4640625 0.86625 0.4640625 1.75 0.9375 C0.48160474 1.44365298 -0.78983102 1.94219099 -2.0625 2.4375 C-3.12404297 2.85515625 -3.12404297 2.85515625 -4.20703125 3.28125 C-6.25 3.9375 -6.25 3.9375 -9.25 3.9375 C-9.25 4.5975 -9.25 5.2575 -9.25 5.9375 C-9.91 5.9375 -10.57 5.9375 -11.25 5.9375 C-11.91 8.5775 -12.57 11.2175 -13.25 13.9375 C-13.91 13.9375 -14.57 13.9375 -15.25 13.9375 C-14.9973789 8.13984568 -14.68181255 4.11606612 -10.25 -0.0625 C-6.3374878 -2.75235214 -4.09219742 -1.93242656 0 0 Z " fill="#DF538E" transform="translate(239.25,164.0625)"/>
<path d="M0 0 C0.33 0 0.66 0 1 0 C1.02886751 4.14581887 1.04675327 8.29161216 1.0625 12.4375 C1.07087891 13.62150391 1.07925781 14.80550781 1.08789062 16.02539062 C1.09111328 17.15009766 1.09433594 18.27480469 1.09765625 19.43359375 C1.10289307 20.47572021 1.10812988 21.51784668 1.11352539 22.59155273 C1 25 1 25 0 26 C-1.66429051 26.09823937 -3.33281931 26.12973631 -5 26.125 C-6.36125 26.12886719 -6.36125 26.12886719 -7.75 26.1328125 C-10 26 -10 26 -11 25 C-11.16796875 23.0390625 -11.16796875 23.0390625 -11.1875 20.625 C-11.20167969 19.83351563 -11.21585937 19.04203125 -11.23046875 18.2265625 C-11 16 -11 16 -9 13 C-9 16.63 -9 20.26 -9 24 C-6.03 24 -3.06 24 0 24 C0 16.08 0 8.16 0 0 Z " fill="#9591BC" transform="translate(315,319)"/>
<path d="M0 0 C0.33 1.32 0.66 2.64 1 4 C0.34 4 -0.32 4 -1 4 C-0.67 5.98 -0.34 7.96 0 10 C0.99 10 1.98 10 3 10 C3.66 12.97 4.32 15.94 5 19 C4.34 19 3.68 19 3 19 C3 18.34 3 17.68 3 17 C1.68 16.34 0.36 15.68 -1 15 C-1 14.34 -1 13.68 -1 13 C-1.66 13 -2.32 13 -3 13 C-3.08121924 11.39667209 -3.13929134 9.79215974 -3.1875 8.1875 C-3.22230469 7.29417969 -3.25710937 6.40085938 -3.29296875 5.48046875 C-2.95081002 2.58352485 -2.24606427 1.77444972 0 0 Z " fill="#3D7DC0" transform="translate(206,239)"/>
<path d="M0 0 C0.66666667 1.33333333 1.33333333 2.66666667 2 4 C2.53625 5.03125 3.0725 6.0625 3.625 7.125 C5 10 5 10 5 12 C5.66 12 6.32 12 7 12 C7 12.66 7 13.32 7 14 C7.66 14.33 8.32 14.66 9 15 C3.75339567 14.68202398 0.38174647 11.79139101 -3 8 C-4.4375 4.625 -4.4375 4.625 -5 2 C-2.525 2.99 -2.525 2.99 0 4 C0 2.68 0 1.36 0 0 Z " fill="#D34595" transform="translate(223,174)"/>
<path d="M0 0 C1 2 1 2 0.0625 4.9375 C-2.09886275 8.1467962 -3.71228774 9.4211088 -7.39453125 10.609375 C-12.9145492 11.4369639 -18.48808744 10.64254037 -24 10 C-24 9.67 -24 9.34 -24 9 C-22.62328125 8.85304687 -22.62328125 8.85304687 -21.21875 8.703125 C-14.0029039 7.82388325 -8.17633043 6.91959431 -2 3 C-1.34 2.01 -0.68 1.02 0 0 Z " fill="#405AAE" transform="translate(269,242)"/>
<path d="M0 0 C0.99 0.33 1.98 0.66 3 1 C3.125 8.75 3.125 8.75 2 11 C1.34 11 0.68 11 0 11 C-0.33 12.32 -0.66 13.64 -1 15 C-1.66 15 -2.32 15 -3 15 C-2.95875 14.2575 -2.9175 13.515 -2.875 12.75 C-3.00398134 9.91241048 -3.57051222 8.41226062 -5 6 C-4.01 5.67 -3.02 5.34 -2 5 C-1.34 5.33 -0.68 5.66 0 6 C0 4.02 0 2.04 0 0 Z " fill="#4B4D8C" transform="translate(297,327)"/>
<path d="M0 0 C2 1 2 1 3 3 C3.99 3.66 4.98 4.32 6 5 C5.67 5.66 5.34 6.32 5 7 C6.65 7 8.3 7 10 7 C10.33 7.66 10.66 8.32 11 9 C8.69 9.33 6.38 9.66 4 10 C3.67 10.99 3.34 11.98 3 13 C2.855625 12.401875 2.71125 11.80375 2.5625 11.1875 C1.9139107 8.66520828 1.16623161 6.33246322 0 4 C-3.62793998 5.86566488 -3.62793998 5.86566488 -6 9 C-6.66 8.67 -7.32 8.34 -8 8 C-7.34 7.01 -6.68 6.02 -6 5 C-5.34 5 -4.68 5 -4 5 C-3.566875 4.0409375 -3.566875 4.0409375 -3.125 3.0625 C-2 1 -2 1 0 0 Z " fill="#4C4F8B" transform="translate(276,306)"/>
<path d="M0 0 C0.99 0.33 1.98 0.66 3 1 C3 2.32 3 3.64 3 5 C3.66 5.2475 4.32 5.495 5 5.75 C8.76360907 7.31817045 12.3711424 9.14505046 16 11 C15.04867188 11.18369141 15.04867188 11.18369141 14.078125 11.37109375 C11.80283433 11.80696091 11.80283433 11.80696091 10.75 14.0625 C10.5025 14.701875 10.255 15.34125 10 16 C9.443125 15.0925 8.88625 14.185 8.3125 13.25 C6.20961965 9.9419601 6.20961965 9.9419601 3.3125 8 C1 6 1 6 0.1875 2.75 C0.125625 1.8425 0.06375 0.935 0 0 Z " fill="#3643A7" transform="translate(261,218)"/>
<path d="M0 0 C1.94268841 2.91403262 3.46395304 5.85808576 5 9 C4.01 10.485 4.01 10.485 3 12 C1.35 11.67 -0.3 11.34 -2 11 C-2 10.34 -2 9.68 -2 9 C-2.66 9 -3.32 9 -4 9 C-3.67 7.35 -3.34 5.7 -3 4 C-2.34 4 -1.68 4 -1 4 C-0.67 2.68 -0.34 1.36 0 0 Z " fill="#10156F" transform="translate(151,293)"/>
<path d="M0 0 C1.32 0 2.64 0 4 0 C4 1.32 4 2.64 4 4 C3.34 4 2.68 4 2 4 C3.68761154 7.25334259 3.68761154 7.25334259 6.8203125 7.73046875 C8.45613281 7.95669922 8.45613281 7.95669922 10.125 8.1875 C11.22070312 8.34605469 12.31640625 8.50460937 13.4453125 8.66796875 C14.28835937 8.77753906 15.13140625 8.88710938 16 9 C16 9.33 16 9.66 16 10 C11.33333333 10 6.66666667 10 2 10 C1.34 9.34 0.68 8.68 0 8 C0 7.34 0 6.68 0 6 C-0.185625 5.154375 -0.37125 4.30875 -0.5625 3.4375 C-0.706875 2.633125 -0.85125 1.82875 -1 1 C-0.67 0.67 -0.34 0.34 0 0 Z " fill="#5B5D9A" transform="translate(153,292)"/>
<path d="M0 0 C-0.33 1.65 -0.66 3.3 -1 5 C-1.66 4.34 -2.32 3.68 -3 3 C-3 4.32 -3 5.64 -3 7 C-3.66 7 -4.32 7 -5 7 C-4.67 8.98 -4.34 10.96 -4 13 C-4.66 13 -5.32 13 -6 13 C-6.33 13.66 -6.66 14.32 -7 15 C-10.67230705 11.92000054 -11.56802365 9.7517398 -12 5 C-10 7 -10 7 -8 10 C-7.81824219 9.36191406 -7.63648438 8.72382813 -7.44921875 8.06640625 C-7.19785156 7.24011719 -6.94648438 6.41382813 -6.6875 5.5625 C-6.44386719 4.73878906 -6.20023438 3.91507812 -5.94921875 3.06640625 C-5.63597656 2.38449219 -5.32273438 1.70257813 -5 1 C-2 0 -2 0 0 0 Z " fill="#272C93" transform="translate(156,304)"/>
<path d="M0 0 C2.5625 2.25 2.5625 2.25 5 5 C4.85817944 7.48185976 4.10376548 8.79246904 3 11 C2.01 11 1.02 11 0 11 C0 13.31 0 15.62 0 18 C-0.99 17.67 -1.98 17.34 -3 17 C-2.690625 16.05125 -2.38125 15.1025 -2.0625 14.125 C-0.72071729 9.49061575 -0.36657993 4.79447959 0 0 Z " fill="#4231D7" transform="translate(286,239)"/>
<path d="M0 0 C0.33 0 0.66 0 1 0 C1.07476562 0.70125 1.14953125 1.4025 1.2265625 2.125 C2.22711577 9.34467849 4.24398776 13.56628627 9 19 C10.00929933 20.3263079 11.0118381 21.65786966 12 23 C8.62496331 21.8141763 6.35277269 20.72426311 4 18 C3.34 18.33 2.68 18.66 2 19 C-1.47383721 5.56782946 -1.47383721 5.56782946 0 0 Z " fill="#751DA5" transform="translate(212,163)"/>
<path d="M0 0 C0.66 0.66 1.32 1.32 2 2 C1.2884375 2.556875 1.2884375 2.556875 0.5625 3.125 C-1.52205802 5.62646962 -1.64621491 7.81593418 -2 11 C-2.66 11 -3.32 11 -4 11 C-4 10.01 -4 9.02 -4 8 C-4.33 8.66 -4.66 9.32 -5 10 C-5.99 9.67 -6.98 9.34 -8 9 C-8 7.35 -8 5.7 -8 4 C-7.01 4 -6.02 4 -5 4 C-5 3.34 -5 2.68 -5 2 C-3.35 1.34 -1.7 0.68 0 0 Z " fill="#5820B8" transform="translate(217,192)"/>
<path d="M0 0 C2.31 0.66 4.62 1.32 7 2 C7.625 4.8125 7.625 4.8125 8 8 C7.01 9.485 7.01 9.485 6 11 C5.01 10.67 4.02 10.34 3 10 C3.66 10 4.32 10 5 10 C5 8.68 5 7.36 5 6 C4.28972656 5.80664062 3.57945312 5.61328125 2.84765625 5.4140625 C1.46900391 5.02347656 1.46900391 5.02347656 0.0625 4.625 C-0.85402344 4.36976563 -1.77054687 4.11453125 -2.71484375 3.8515625 C-5 3 -5 3 -6 1 C-3.03 1.495 -3.03 1.495 0 2 C0 1.34 0 0.68 0 0 Z " fill="#5B5C97" transform="translate(282,326)"/>
<path d="M0 0 C2.475 0.495 2.475 0.495 5 1 C5 1.66 5 2.32 5 3 C6.32 3 7.64 3 9 3 C9.33 3.66 9.66 4.32 10 5 C10.66 5.33 11.32 5.66 12 6 C11.67 6.66 11.34 7.32 11 8 C6.66956925 7.49646154 3.45523687 6.74386457 0 4 C0 2.68 0 1.36 0 0 Z " fill="#383982" transform="translate(146,337)"/>
<path d="M0 0 C2 2 2 2 2 5 C2.99 4.01 3.98 3.02 5 2 C5.99 2.33 6.98 2.66 8 3 C7.67 3.99 7.34 4.98 7 6 C7.33 6.99 7.66 7.98 8 9 C7.01 9 6.02 9 5 9 C5 8.34 5 7.68 5 7 C4.34 7 3.68 7 3 7 C2.34 8.32 1.68 9.64 1 11 C0.34 10.67 -0.32 10.34 -1 10 C-0.67 6.7 -0.34 3.4 0 0 Z " fill="#53558E" transform="translate(239,313)"/>
<path d="M0 0 C5.66442374 0.36504064 10.00703705 1.0554321 15 4 C15 4.66 15 5.32 15 6 C15.66 6.33 16.32 6.66 17 7 C14.36 7.33 11.72 7.66 9 8 C9.66 6.68 10.32 5.36 11 4 C10.01 4 9.02 4 8 4 C8 3.34 8 2.68 8 2 C5.03 2 2.06 2 -1 2 C-0.67 1.34 -0.34 0.68 0 0 Z " fill="#464983" transform="translate(160,290)"/>
<path d="M0 0 C0.99 0.33 1.98 0.66 3 1 C4 4 4 4 4 8 C0.65626525 7.44271087 -2.03312999 6.64826111 -5 5 C-3.35 3.35 -1.7 1.7 0 0 Z " fill="#2870C3" transform="translate(220,256)"/>
<path d="M0 0 C0.66 0 1.32 0 2 0 C2.33 0.99 2.66 1.98 3 3 C2.01 3.495 2.01 3.495 1 4 C2.98 5.32 4.96 6.64 7 8 C3.06322574 9.31225809 1.2205738 8.3393954 -2.6875 7.0625 C-3.86699219 6.68222656 -5.04648437 6.30195313 -6.26171875 5.91015625 C-7.16535156 5.60980469 -8.06898438 5.30945313 -9 5 C-9 4.67 -9 4.34 -9 4 C-8.43410156 3.87882813 -7.86820312 3.75765625 -7.28515625 3.6328125 C-6.18494141 3.38144531 -6.18494141 3.38144531 -5.0625 3.125 C-4.33160156 2.96257812 -3.60070312 2.80015625 -2.84765625 2.6328125 C-0.79299706 2.17038477 -0.79299706 2.17038477 0 0 Z " fill="#E85586" transform="translate(266,160)"/>
<path d="M0 0 C3.63 0.66 7.26 1.32 11 2 C11 2.33 11 2.66 11 3 C1.35507185 5.54172224 -9.23412022 6.32520947 -19 4 C-19 3.67 -19 3.34 -19 3 C-12.73 3.33 -6.46 3.66 0 4 C0 2.68 0 1.36 0 0 Z " fill="#6F8AC9" transform="translate(256,264)"/>
<path d="M0 0 C2.375 1.625 2.375 1.625 4 3 C3.67 3.99 3.34 4.98 3 6 C1.845 5.54625 0.69 5.0925 -0.5 4.625 C-4.61257567 3.07544024 -8.72127621 1.99327517 -13 1 C-13 0.67 -13 0.34 -13 0 C-7.86089192 -1.85007891 -5.00126174 -2.33392214 0 0 Z " fill="#7054C4" transform="translate(258,218)"/>
<path d="M0 0 C0.66 1.98 1.32 3.96 2 6 C-2.17587745 7.39195915 -4.13474776 5.82323219 -8 4 C-7.67 3.01 -7.34 2.02 -7 1 C-4 0 -4 0 0 0 Z " fill="#0D1670" transform="translate(159,336)"/>
<path d="M0 0 C0.99 0.33 1.98 0.66 3 1 C2.01 1.66 1.02 2.32 0 3 C-0.33 3.99 -0.66 4.98 -1 6 C-0.34 6 0.32 6 1 6 C2 7 3 8 4 9 C4.66 9 5.32 9 6 9 C5.67 9.99 5.34 10.98 5 12 C1.65510004 11.40269644 -0.57917355 10.42082645 -3 8 C-3.4375 5.5 -3.4375 5.5 -3 3 C-1.5 1.1875 -1.5 1.1875 0 0 Z " fill="#56558D" transform="translate(271,332)"/>
<path d="M0 0 C3.96 0 7.92 0 12 0 C11.67 0.99 11.34 1.98 11 3 C10.38511719 2.94199219 9.77023438 2.88398438 9.13671875 2.82421875 C6.67343941 2.68671512 4.44205675 2.63195953 2 3 C-0.15602694 5.33749166 -0.15602694 5.33749166 -1 8 C-1.625 6.25 -1.625 6.25 -2 4 C-1.34 2.68 -0.68 1.36 0 0 Z " fill="#56598E" transform="translate(198,326)"/>
<path d="M0 0 C1.984375 0.89453125 1.984375 0.89453125 4 3 C4.52614217 6.23390636 4.37422316 9.42186437 4.25 12.6875 C4.23195312 13.58017578 4.21390625 14.47285156 4.1953125 15.39257812 C4.14817759 17.59613504 4.08240657 19.79752601 4 22 C3.67 22 3.34 22 3 22 C2.93941406 21.37351562 2.87882813 20.74703125 2.81640625 20.1015625 C2.73261719 19.28429687 2.64882812 18.46703125 2.5625 17.625 C2.48128906 16.81289063 2.40007812 16.00078125 2.31640625 15.1640625 C2.10909886 12.95727195 2.10909886 12.95727195 1 11 C1 9.33333333 1 7.66666667 1 6 C0.67 5.01 0.34 4.02 0 3 C0 2.01 0 1.02 0 0 Z " fill="#14176A" transform="translate(216,310)"/>
<path d="M0 0 C1.98 0 3.96 0 6 0 C6.66 1.32 7.32 2.64 8 4 C5 6 5 6 2.3125 5.625 C1.549375 5.41875 0.78625 5.2125 0 5 C-0.33 5.66 -0.66 6.32 -1 7 C-1.66 7 -2.32 7 -3 7 C-3.33 6.01 -3.66 5.02 -4 4 C-2.02 3.34 -0.04 2.68 2 2 C1.34 1.34 0.68 0.68 0 0 Z " fill="#323681" transform="translate(165,313)"/>
<path d="M0 0 C1.5 2.125 1.5 2.125 2 4 C1.113125 3.46375 0.22625 2.9275 -0.6875 2.375 C-3.86501999 0.67306131 -3.86501999 0.67306131 -6.8125 1.6875 C-9.12942534 2.81145444 -9.12942534 2.81145444 -10 5 C-10.99 4.67 -11.98 4.34 -13 4 C-13 2.68 -13 1.36 -13 0 C-8.42765764 -2.57194258 -4.65597808 -2.09257442 0 0 Z " fill="#534D97" transform="translate(327,314)"/>
<path d="M0 0 C1.75 1.4375 1.75 1.4375 3 3 C1.515 5.475 1.515 5.475 0 8 C-0.99 7.67 -1.98 7.34 -3 7 C-3 6.34 -3 5.68 -3 5 C-3.66 5 -4.32 5 -5 5 C-4.67 3.68 -4.34 2.36 -4 1 C-2.1875 0.3125 -2.1875 0.3125 0 0 Z " fill="#131A6C" transform="translate(275,333)"/>
<path d="M0 0 C0.66 0 1.32 0 2 0 C2 0.99 2 1.98 2 3 C2.66 3 3.32 3 4 3 C4.33 2.01 4.66 1.02 5 0 C5.66 0.33 6.32 0.66 7 1 C7 1.66 7 2.32 7 3 C2.93654391 7.06345609 -1.61774638 8.45216236 -7 10 C-7 9.01 -7 8.02 -7 7 C-4.36 6.67 -1.72 6.34 1 6 C0.67 4.02 0.34 2.04 0 0 Z " fill="#5964C0" transform="translate(278,255)"/>
<path d="M0 0 C0.33 1.32 0.66 2.64 1 4 C-1.99480917 4.8723412 -4.63575911 5.10829766 -7.75 5.0625 C-8.54921875 5.05347656 -9.3484375 5.04445313 -10.171875 5.03515625 C-10.77515625 5.02355469 -11.3784375 5.01195312 -12 5 C-12 4.01 -12 3.02 -12 2 C-8.04 2 -4.08 2 0 2 C0 1.34 0 0.68 0 0 Z " fill="#74749D" transform="translate(210,317)"/>
<path d="M0 0 C2.33285378 2.13900633 3.7868759 4.16655353 5.1875 7 C5.53167969 7.680625 5.87585938 8.36125 6.23046875 9.0625 C7 11 7 11 7 14 C5.35 13.67 3.7 13.34 2 13 C2.33 11.35 2.66 9.7 3 8 C2.34 8 1.68 8 1 8 C0.67 5.36 0.34 2.72 0 0 Z " fill="#6144CA" transform="translate(288,212)"/>
<path d="M0 0 C1.32 0.33 2.64 0.66 4 1 C4.07427838 4.34252724 4.06546953 6.8035914 3 10 C2.01 9.67 1.02 9.34 0 9 C-1.1875 5.9375 -1.1875 5.9375 -2 3 C-1.34 3 -0.68 3 0 3 C0 2.01 0 1.02 0 0 Z " fill="#111671" transform="translate(146,305)"/>
<path d="M0 0 C2.1015625 0.171875 2.1015625 0.171875 4.625 0.75 C5.9553125 1.04777344 5.9553125 1.04777344 7.3125 1.3515625 C8.199375 1.56554687 9.08625 1.77953125 10 2 C10.804375 2.19335938 11.60875 2.38671875 12.4375 2.5859375 C14.29506995 3.04369581 16.14808537 3.51987399 18 4 C18 4.33 18 4.66 18 5 C14.7 5 11.4 5 8 5 C8 4.34 8 3.68 8 3 C4.7 2.67 1.4 2.34 -2 2 C-1.34 1.34 -0.68 0.68 0 0 Z " fill="#815EBD" transform="translate(244,194)"/>
<path d="M0 0 C2.97 0 5.94 0 9 0 C9 0.99 9 1.98 9 3 C6.69 4.32 4.38 5.64 2 7 C1.34 4.69 0.68 2.38 0 0 Z " fill="#E23687" transform="translate(224,160)"/>
<path d="M0 0 C2.475 0.99 2.475 0.99 5 2 C5 2.99 5 3.98 5 5 C5.66 5.66 6.32 6.32 7 7 C4.36 7 1.72 7 -1 7 C-1.33 5.35 -1.66 3.7 -2 2 C-1.34 2 -0.68 2 0 2 C0 1.34 0 0.68 0 0 Z " fill="#0F166F" transform="translate(166,336)"/>
<path d="M0 0 C1.32 0 2.64 0 4 0 C4 0.99 4 1.98 4 3 C4.99 3 5.98 3 7 3 C7 3.99 7 4.98 7 6 C4.6875 6.6875 4.6875 6.6875 2 7 C0.125 5.8125 0.125 5.8125 -1 4 C-0.6875 1.8125 -0.6875 1.8125 0 0 Z " fill="#4925D4" transform="translate(279,209)"/>
<path d="M0 0 C0.66 0.33 1.32 0.66 2 1 C1.125 8.625 1.125 8.625 0 12 C-0.66 12 -1.32 12 -2 12 C-2 8.37 -2 4.74 -2 1 C-1.34 0.67 -0.68 0.34 0 0 Z " fill="#1534AA" transform="translate(282,246)"/>
<path d="M0 0 C0 3 0 3 -1 6 C-4 8 -4 8 -7 8 C-7 8.99 -7 9.98 -7 11 C-7.66 11 -8.32 11 -9 11 C-7.87548273 8.0280615 -6.77706209 5.66559313 -5 3 C-4.34 3 -3.68 3 -3 3 C-3 2.34 -3 1.68 -3 1 C-2.01 0.67 -1.02 0.34 0 0 Z " fill="#9454A8" transform="translate(215,157)"/>
<path d="M0 0 C2.31 0 4.62 0 7 0 C4.30567344 3.48677555 1.2072263 4.11783965 -3 5 C-6.00932913 5.14831352 -8.99026504 5.12284632 -12 5 C-12 4.67 -12 4.34 -12 4 C-10.02 3.67 -8.04 3.34 -6 3 C-6 2.67 -6 2.34 -6 2 C-4.02 1.67 -2.04 1.34 0 1 C0 0.67 0 0.34 0 0 Z " fill="#7774AA" transform="translate(170,341)"/>
<path d="M0 0 C1.65 0 3.3 0 5 0 C5 0.66 5 1.32 5 2 C7.97 2.33 10.94 2.66 14 3 C12 5 12 5 9.6875 5.1171875 C8.3571875 4.99730469 8.3571875 4.99730469 7 4.875 C6.113125 4.81054688 5.22625 4.74609375 4.3125 4.6796875 C2 4 2 4 0.6875 1.9453125 C0.460625 1.30335938 0.23375 0.66140625 0 0 Z " fill="#35387D" transform="translate(155,319)"/>
<path d="M0 0 C0.99 0.33 1.98 0.66 3 1 C2.34 2.98 1.68 4.96 1 7 C-1.25 7.75 -1.25 7.75 -4 8 C-6.3125 6.0625 -6.3125 6.0625 -8 4 C-5.69 4.33 -3.38 4.66 -1 5 C-0.67 3.35 -0.34 1.7 0 0 Z " fill="#6D6799" transform="translate(295,309)"/>
<path d="M0 0 C3.46454633 0.39369845 5.78837055 1.49513647 8.75 3.3125 C9.08 4.3025 9.41 5.2925 9.75 6.3125 C6.875 6.0625 6.875 6.0625 3.75 5.3125 C2.375 3.25 2.375 3.25 1.75 1.3125 C-0.23 1.6425 -2.21 1.9725 -4.25 2.3125 C-2.25 0.3125 -2.25 0.3125 0 0 Z " fill="#65658F" transform="translate(326.25,303.6875)"/>
<path d="M0 0 C0 0.66 0 1.32 0 2 C-3.93828536 4.31663844 -7.69235185 6.43358249 -12 8 C-12.33 7.34 -12.66 6.68 -13 6 C-11.21118264 4.99491199 -9.41885304 3.99607264 -7.625 3 C-6.62726563 2.443125 -5.62953125 1.88625 -4.6015625 1.3125 C-2 0 -2 0 0 0 Z " fill="#D55A92" transform="translate(227,150)"/>
<path d="M0 0 C1.65 0 3.3 0 5 0 C5 1.65 5 3.3 5 5 C3.02 5.33 1.04 5.66 -1 6 C-1.33 5.34 -1.66 4.68 -2 4 C-1.0625 1.875 -1.0625 1.875 0 0 Z " fill="#1538A9" transform="translate(274,256)"/>
<path d="M0 0 C0.66 0 1.32 0 2 0 C1.39196574 3.12308506 0.37985958 5.19251662 -1.5 7.75 C-2.16515625 8.67039063 -2.16515625 8.67039063 -2.84375 9.609375 C-3.2253125 10.06828125 -3.606875 10.5271875 -4 11 C-4.33 11 -4.66 11 -5 11 C-5 9.02 -5 7.04 -5 5 C-4.01 5 -3.02 5 -2 5 C-1.34 3.35 -0.68 1.7 0 0 Z " fill="#755FCE" transform="translate(291,245)"/>
<path d="M0 0 C0.33 0.66 0.66 1.32 1 2 C2.65 1.67 4.3 1.34 6 1 C6 1.66 6 2.32 6 3 C5.195625 3.226875 4.39125 3.45375 3.5625 3.6875 C2.716875 4.120625 1.87125 4.55375 1 5 C0.10613836 7.54775306 0.10613836 7.54775306 0 10 C-2 7 -2 7 -2 5 C-2.99 4.67 -3.98 4.34 -5 4 C-4.01 3.67 -3.02 3.34 -2 3 C-1.34 2.01 -0.68 1.02 0 0 Z " fill="#3E428D" transform="translate(172,321)"/>
<path d="M0 0 C0.99 0.33 1.98 0.66 3 1 C2.25 2.9375 2.25 2.9375 1 5 C-1 5.625 -1 5.625 -3 6 C-3.66 6.66 -4.32 7.32 -5 8 C-4.66275164 4.88045262 -4.3790035 3.3790035 -2.125 1.125 C-1.42375 0.75375 -0.7225 0.3825 0 0 Z " fill="#DD378D" transform="translate(220,155)"/>
<path d="M0 0 C4.62 0 9.24 0 14 0 C13.67 1.32 13.34 2.64 13 4 C12.34 4 11.68 4 11 4 C11 3.34 11 2.68 11 2 C7.37 2 3.74 2 0 2 C0 1.34 0 0.68 0 0 Z " fill="#635B94" transform="translate(251,306)"/>
<path d="M0 0 C0 0.66 0 1.32 0 2 C-3.63 2.66 -7.26 3.32 -11 4 C-11.33 3.34 -11.66 2.68 -12 2 C-7.72424275 -1.23921004 -5.16347713 -1.11369115 0 0 Z " fill="#3E3D72" transform="translate(358,290)"/>
<path d="M0 0 C0.66 0 1.32 0 2 0 C2.33 1.32 2.66 2.64 3 4 C4.32 4 5.64 4 7 4 C7 4.66 7 5.32 7 6 C6.34 6 5.68 6 5 6 C4.67 7.32 4.34 8.64 4 10 C1.16625119 6.79663178 0.4794463 4.21912747 0 0 Z " fill="#7C4FBA" transform="translate(204,190)"/>
<path d="M0 0 C1.17755859 -0.02126953 1.17755859 -0.02126953 2.37890625 -0.04296875 C4.4375 0.1875 4.4375 0.1875 6.4375 2.1875 C3.15053767 2.98703138 1.72726808 3.28408936 -1.5625 2.1875 C-3.57125442 2.46321139 -5.57428687 2.78985737 -7.5625 3.1875 C-7.5625 2.5275 -7.5625 1.8675 -7.5625 1.1875 C-4.76092552 0.25364184 -2.90802197 0.02395405 0 0 Z " fill="#121B7A" transform="translate(205.5625,306.8125)"/>
<path d="M0 0 C0.99 0.33 1.98 0.66 3 1 C3 2.32 3 3.64 3 5 C5.475 5.99 5.475 5.99 8 7 C7.67 8.32 7.34 9.64 7 11 C1.21538462 6.81538462 1.21538462 6.81538462 0.125 2.6875 C0.08375 1.800625 0.0425 0.91375 0 0 Z " fill="#5047B4" transform="translate(261,218)"/>
<path d="M0 0 C3.465 1.98 3.465 1.98 7 4 C7 4.99 7 5.98 7 7 C5.02 7 3.04 7 1 7 C1.33 5.35 1.66 3.7 2 2 C1.34 2 0.68 2 0 2 C0 1.34 0 0.68 0 0 Z " fill="#EB7295" transform="translate(281,153)"/>
<path d="M0 0 C0.66 0 1.32 0 2 0 C2 0.66 2 1.32 2 2 C2.763125 1.773125 3.52625 1.54625 4.3125 1.3125 C5.199375 1.209375 6.08625 1.10625 7 1 C8.8125 2.4375 8.8125 2.4375 10 4 C7.36 4.33 4.72 4.66 2 5 C1.34 3.35 0.68 1.7 0 0 Z " fill="#111669" transform="translate(158,312)"/>
<path d="M0 0 C0.33 0.66 0.66 1.32 1 2 C-3.30769231 5.93846154 -3.30769231 5.93846154 -6.8125 6.25 C-7.534375 6.1675 -8.25625 6.085 -9 6 C-8 3 -8 3 -6.15234375 2.05078125 C-5.42144531 1.80714844 -4.69054687 1.56351563 -3.9375 1.3125 C-3.20402344 1.06113281 -2.47054688 0.80976563 -1.71484375 0.55078125 C-0.86599609 0.27814453 -0.86599609 0.27814453 0 0 Z " fill="#1044B6" transform="translate(264,250)"/>
<path d="M0 0 C0.33 0 0.66 0 1 0 C1.25 3.3125 1.25 3.3125 1 7 C-1 8.9375 -1 8.9375 -3 10 C-3.33 9.34 -3.66 8.68 -4 8 C-3.22265625 6.0546875 -3.22265625 6.0546875 -2.0625 3.875 C-1.49208984 2.78832031 -1.49208984 2.78832031 -0.91015625 1.6796875 C-0.60980469 1.12539062 -0.30945313 0.57109375 0 0 Z " fill="#1539AA" transform="translate(271,241)"/>
<path d="M0 0 C0.33 0 0.66 0 1 0 C1.336611 1.77021322 1.66917293 3.54119674 2 5.3125 C2.185625 6.29863281 2.37125 7.28476563 2.5625 8.30078125 C3 11 3 11 3 14 C0.64536382 12.15724125 0.01809181 11.06935196 -0.75 8.125 C-0.98951839 5.13102009 -0.7641019 2.88660716 0 0 Z " fill="#811AA0" transform="translate(212,163)"/>
<path d="M0 0 C2 2 2 2 2.4375 5.1875 C1.86520576 10.17463549 0.14087292 12.15243068 -3 16 C-3 13 -3 13 -2.0625 10.8125 C-0.69350332 7.18868526 -0.39165697 3.85129358 0 0 Z " fill="#8485AC" transform="translate(181,325)"/>
<path d="M0 0 C5.75 0.75 5.75 0.75 8 3 C6.02 3.66 4.04 4.32 2 5 C2.33 6.32 2.66 7.64 3 9 C2.01 8.67 1.02 8.34 0 8 C0.185625 7.05125 0.37125 6.1025 0.5625 5.125 C1.28686632 2.10131207 1.28686632 2.10131207 0 0 Z " fill="#101467" transform="translate(275,318)"/>
<path d="M0 0 C3.3 0 6.6 0 10 0 C10 0.66 10 1.32 10 2 C7.21136993 3.39431504 5.07921132 3.25660094 2 3 C1.34 2.01 0.68 1.02 0 0 Z " fill="#E16A8E" transform="translate(276,171)"/>
<path d="M0 0 C1.65 0 3.3 0 5 0 C5 0.99 5 1.98 5 3 C5.99 3.33 6.98 3.66 8 4 C8.33 5.65 8.66 7.3 9 9 C8.34 9 7.68 9 7 9 C3 3.58823529 3 3.58823529 3 1 C2.01 1.33 1.02 1.66 0 2 C0 1.34 0 0.68 0 0 Z " fill="#5F5F92" transform="translate(241,329)"/>
<path d="M0 0 C0.99 0 1.98 0 3 0 C3.33 1.32 3.66 2.64 4 4 C3.34 4 2.68 4 2 4 C2.66 5.98 3.32 7.96 4 10 C3.01 10 2.02 10 1 10 C0.34 9.01 -0.32 8.02 -1 7 C-0.67 6.34 -0.34 5.68 0 5 C0.0396713 3.33380554 0.04384447 1.66608987 0 0 Z " fill="#454688" transform="translate(250,317)"/>
<path d="M0 0 C0.763125 0.20625 1.52625 0.4125 2.3125 0.625 C1.9825 2.605 1.6525 4.585 1.3125 6.625 C0.9 6.13 0.4875 5.635 0.0625 5.125 C-1.80952338 3.19113908 -1.80952338 3.19113908 -5.6875 3.625 C-5.6875 2.965 -5.6875 2.305 -5.6875 1.625 C-2.6875 -0.375 -2.6875 -0.375 0 0 Z " fill="#0D156D" transform="translate(276.6875,310.375)"/>
<path d="M0 0 C3.68754757 0.49831724 5.60490662 1.10067643 8 4 C7.67 4.66 7.34 5.32 7 6 C6.01 6 5.02 6 4 6 C0 1.54285714 0 1.54285714 0 0 Z " fill="#5A5997" transform="translate(211,306)"/>
<path d="M0 0 C0.66 0 1.32 0 2 0 C2 1.32 2 2.64 2 4 C1.34 4 0.68 4 0 4 C-0.66 5.32 -1.32 6.64 -2 8 C-2.33 8 -2.66 8 -3 8 C-3.33 6.02 -3.66 4.04 -4 2 C-2.68 2 -1.36 2 0 2 C0 1.34 0 0.68 0 0 Z " fill="#3D3682" transform="translate(260,308)"/>
<path d="M0 0 C1.74627478 2.61941217 2.38722388 4.03824877 3 7 C1.35 7.66 -0.3 8.32 -2 9 C-2.33 8.34 -2.66 7.68 -3 7 C-2.34 6.01 -1.68 5.02 -1 4 C-0.36707617 1.88719655 -0.36707617 1.88719655 0 0 Z " fill="#0E156D" transform="translate(153,306)"/>
<path d="M0 0 C2.64 0.33 5.28 0.66 8 1 C8.33 1.99 8.66 2.98 9 4 C5.7 3.67 2.4 3.34 -1 3 C-0.67 2.01 -0.34 1.02 0 0 Z " fill="#3D3D76" transform="translate(203,304)"/>
<path d="M0 0 C3.01217112 0.64449607 5.51655836 1.65022182 8.25 3.0625 C8.95640625 3.42472656 9.6628125 3.78695312 10.390625 4.16015625 C10.92171875 4.43730469 11.4528125 4.71445313 12 5 C11.67 5.66 11.34 6.32 11 7 C6.545 5.02 6.545 5.02 2 3 C2 2.34 2 1.68 2 1 C1.34 0.67 0.68 0.34 0 0 Z " fill="#8066C3" transform="translate(269,201)"/>
<path d="M0 0 C5.28 0 10.56 0 16 0 C16 0.33 16 0.66 16 1 C15.04287109 1.07347656 15.04287109 1.07347656 14.06640625 1.1484375 C13.24011719 1.22320312 12.41382813 1.29796875 11.5625 1.375 C10.32693359 1.47941406 10.32693359 1.47941406 9.06640625 1.5859375 C8.04353516 1.79089844 8.04353516 1.79089844 7 2 C6.67 2.66 6.34 3.32 6 4 C5.67 3.34 5.34 2.68 5 2 C2.47266765 1.34444881 2.47266765 1.34444881 0 1 C0 0.67 0 0.34 0 0 Z " fill="#E13869" transform="translate(249,148)"/>
<path d="M0 0 C0.66 0 1.32 0 2 0 C2.66 2.31 3.32 4.62 4 7 C1.36 7 -1.28 7 -4 7 C-3.67 6.01 -3.34 5.02 -3 4 C-3 4.66 -3 5.32 -3 6 C-2.01 6 -1.02 6 0 6 C0 4.02 0 2.04 0 0 Z " fill="#0D1667" transform="translate(354,336)"/>
<path d="M0 0 C0.66 0.33 1.32 0.66 2 1 C1.67 1.66 1.34 2.32 1 3 C2.65 3 4.3 3 6 3 C6.33 3.66 6.66 4.32 7 5 C4.69 5.33 2.38 5.66 0 6 C-0.33 6.99 -0.66 7.98 -1 9 C-2.0326802 6.21176345 -2.04509293 5.1322726 -1.0625 2.25 C-0.711875 1.5075 -0.36125 0.765 0 0 Z " fill="#5A5C92" transform="translate(280,310)"/>
<path d="M0 0 C1.65 0 3.3 0 5 0 C5.33 1.32 5.66 2.64 6 4 C3.03 3.505 3.03 3.505 0 3 C0 2.01 0 1.02 0 0 Z M2 4 C2.33 4.66 2.66 5.32 3 6 C2.34 5.67 1.68 5.34 1 5 C1.33 4.67 1.66 4.34 2 4 Z " fill="#3C407B" transform="translate(289,306)"/>
<path d="M0 0 C2.97 1.65 5.94 3.3 9 5 C4.70600835 6.07349791 3.80504787 5.79682816 0 4 C0 2.68 0 1.36 0 0 Z " fill="#5E8AC3" transform="translate(217,239)"/>
<path d="M0 0 C0.66 0 1.32 0 2 0 C2 0.99 2 1.98 2 3 C3.32 2.67 4.64 2.34 6 2 C6 3.66666667 6 5.33333333 6 7 C2.34683329 5.75023244 1.21934164 5.32901247 -1 2 C-0.67 1.34 -0.34 0.68 0 0 Z " fill="#7E58BE" transform="translate(211,200)"/>
<path d="M0 0 C2.375 0.625 2.375 0.625 5 2 C6.3125 5.125 6.3125 5.125 7 8 C3.17360931 6.54861043 1.84332652 4.59448672 0 1 C0 0.67 0 0.34 0 0 Z " fill="#515091" transform="translate(269,319)"/>
<path d="M0 0 C2 2 2 2 3 5 C4.65 5.33 6.3 5.66 8 6 C8 6.66 8 7.32 8 8 C7.34 8 6.68 8 6 8 C5.67 8.66 5.34 9.32 5 10 C1.32769295 6.92000054 0.43197635 4.7517398 0 0 Z " fill="#595793" transform="translate(144,309)"/>
<path d="M0 0 C0 0.66 0 1.32 0 2 C-0.66 2 -1.32 2 -2 2 C-2.33 2.99 -2.66 3.98 -3 5 C-4.32 3.68 -5.64 2.36 -7 1 C-3.375 -1.125 -3.375 -1.125 0 0 Z " fill="#393D7C" transform="translate(197,313)"/>
<path d="M0 0 C0.66 0 1.32 0 2 0 C1.67 1.32 1.34 2.64 1 4 C-3.455 4.495 -3.455 4.495 -8 5 C-8 4.01 -8 3.02 -8 2 C-7.05125 2.04125 -6.1025 2.0825 -5.125 2.125 C-1.89755144 2.34973818 -1.89755144 2.34973818 0 0 Z " fill="#7D7DB1" transform="translate(210,340)"/>
<path d="M0 0 C0.99 1.32 1.98 2.64 3 4 C2.67 4.66 2.34 5.32 2 6 C0.35 6 -1.3 6 -3 6 C-3.33 5.01 -3.66 4.02 -4 3 C-2.68 2.01 -1.36 1.02 0 0 Z " fill="#3B3E8C" transform="translate(170,332)"/>
<path d="M0 0 C0.33 0 0.66 0 1 0 C1.25 5.625 1.25 5.625 -1 9 C-3.625 9.1875 -3.625 9.1875 -6 9 C-4.71034824 7.62437146 -3.37310707 6.29233607 -2 5 C-1.34 5 -0.68 5 0 5 C0 3.35 0 1.7 0 0 Z " fill="#4D4F8C" transform="translate(211,328)"/>
<path d="M0 0 C0.99 0.33 1.98 0.66 3 1 C3 1.66 3 2.32 3 3 C3.99 3.33 4.98 3.66 6 4 C3.04335481 5.4783226 0.25770263 5.06032783 -3 5 C-3 4.34 -3 3.68 -3 3 C-2.34 3 -1.68 3 -1 3 C-0.67 2.01 -0.34 1.02 0 0 Z " fill="#4B4C7E" transform="translate(148,329)"/>
<path d="M0 0 C0.66 0 1.32 0 2 0 C2 1.32 2 2.64 2 4 C2.66 4 3.32 4 4 4 C3.67 5.32 3.34 6.64 3 8 C2.01 7.67 1.02 7.34 0 7 C-1.17755913 4.05610218 -1.03348696 3.10046087 0 0 Z " fill="#0E1978" transform="translate(330,309)"/>
<path d="M0 0 C0.66 0 1.32 0 2 0 C2.66 0.99 3.32 1.98 4 3 C4.66 3.33 5.32 3.66 6 4 C6 4.66 6 5.32 6 6 C4.35 6.33 2.7 6.66 1 7 C0.67 4.69 0.34 2.38 0 0 Z " fill="#213BA5" transform="translate(272,234)"/>
<path d="M0 0 C0 0.66 0 1.32 0 2 C-2.31 2.33 -4.62 2.66 -7 3 C-7 2.01 -7 1.02 -7 0 C-4.3333581 -1.33332095 -2.83319697 -0.67102033 0 0 Z " fill="#4E518A" transform="translate(166,336)"/>
<path d="M0 0 C0.99 0.495 0.99 0.495 2 1 C1.67 2.98 1.34 4.96 1 7 C1.99 7.33 2.98 7.66 4 8 C4 9.32 4 10.64 4 12 C3.34 12 2.68 12 2 12 C-0.60018816 8.09971775 -0.15085514 4.52565431 0 0 Z " fill="#9594BD" transform="translate(186,328)"/>
<path d="M0 0 C2.64 0.33 5.28 0.66 8 1 C5.36095629 2.41377341 2.92879371 3.37240135 0 4 C0 2.68 0 1.36 0 0 Z " fill="#343880" transform="translate(151,334)"/>
<path d="M0 0 C5.57142857 5.14285714 5.57142857 5.14285714 6 9 C5.38125 8.525625 4.7625 8.05125 4.125 7.5625 C2.09294454 5.97582559 2.09294454 5.97582559 0 5 C0 3.35 0 1.7 0 0 Z " fill="#5C5B8F" transform="translate(254,327)"/>
<path d="M0 0 C0.66 0 1.32 0 2 0 C1.67 2.31 1.34 4.62 1 7 C-1.475 6.01 -1.475 6.01 -4 5 C-2.71937515 3.2925002 -1.38232443 1.62626404 0 0 Z " fill="#F23873" transform="translate(270,160)"/>
<path d="M0 0 C0.99 0 1.98 0 3 0 C2.34 2.97 1.68 5.94 1 9 C0.34 9 -0.32 9 -1 9 C-0.67 6.03 -0.34 3.06 0 0 Z " fill="#D65D99" transform="translate(225,169)"/>
<path d="M0 0 C1.98 0 3.96 0 6 0 C5.42655063 2.86724686 5.1385485 3.8614515 3 6 C3 4.68 3 3.36 3 2 C2.01 2 1.02 2 0 2 C0 1.34 0 0.68 0 0 Z " fill="#E55884" transform="translate(284,166)"/>
<path d="M0 0 C2.4375 0.8125 2.4375 0.8125 5 2 C5.33 2.99 5.66 3.98 6 5 C4.35 5.33 2.7 5.66 1 6 C0.67 4.02 0.34 2.04 0 0 Z " fill="#E8527E" transform="translate(276,151)"/>
<path d="M0 0 C2.375 0.25 2.375 0.25 5 1 C6.3125 3.0625 6.3125 3.0625 7 5 C5.35 5 3.7 5 2 5 C1.34 3.35 0.68 1.7 0 0 Z " fill="#4D4F88" transform="translate(172,315)"/>
<path d="M0 0 C1.98 0 3.96 0 6 0 C6 2.64 6 5.28 6 8 C5.67 8 5.34 8 5 8 C4.67 6.35 4.34 4.7 4 3 C2.68 2.67 1.36 2.34 0 2 C0 1.34 0 0.68 0 0 Z " fill="#16175E" transform="translate(233,292)"/>
<path d="M0 0 C2.72426311 2.35277269 3.8141763 4.62496331 5 8 C3.68 8 2.36 8 1 8 C0.67 5.36 0.34 2.72 0 0 Z " fill="#765DC8" transform="translate(288,212)"/>
<path d="M0 0 C1.485 0.99 1.485 0.99 3 2 C3.1875 5.125 3.1875 5.125 3 8 C2.01 7.34 1.02 6.68 0 6 C-0.1875 2.875 -0.1875 2.875 0 0 Z " fill="#222476" transform="translate(270,313)"/>
<path d="M0 0 C0.99 0 1.98 0 3 0 C3 1.65 3 3.3 3 5 C1.68 5 0.36 5 -1 5 C-1.33 4.01 -1.66 3.02 -2 2 C-1.34 2 -0.68 2 0 2 C0 1.34 0 0.68 0 0 Z " fill="#10146C" transform="translate(292,310)"/>
<path d="M0 0 C-4.75 3 -4.75 3 -7 3 C-7 2.01 -7 1.02 -7 0 C-3.86650268 -1.04449911 -3.01031744 -0.93423645 0 0 Z " fill="#5162AA" transform="translate(278,262)"/>
<path d="M0 0 C0.33 0.66 0.66 1.32 1 2 C0.06553465 4.03144641 -0.93224776 6.03533587 -2 8 C-2.66 7.67 -3.32 7.34 -4 7 C-4 4 -4 4 -2 1.8125 C-1.34 1.214375 -0.68 0.61625 0 0 Z " fill="#4E63B0" transform="translate(269,242)"/>
<path d="M0 0 C2.31 0.66 4.62 1.32 7 2 C7 2.66 7 3.32 7 4 C7.66 4.33 8.32 4.66 9 5 C4.68607774 4.5206753 2.83430453 3.2542015 0 0 Z " fill="#AB49A2" transform="translate(223,184)"/>
</svg>
